<svg fill="none" height="495" viewBox="0 0 945 495" width="945" xmlns="http://www.w3.org/2000/svg" xmlns:xlink="http://www.w3.org/1999/xlink"><linearGradient id="paint0_linear_1106_17930" gradientUnits="userSpaceOnUse" x1="418.541" x2="504.179" y1="712.097" y2="-25.2629"><stop offset=".2062" stop-color="#bdd4ff"/><stop offset=".9992" stop-color="#edf3ff"/></linearGradient><linearGradient id="lg1"><stop offset=".00190595" stop-color="#4873c4" stop-opacity=".4"/><stop offset=".2033" stop-color="#4b75c5" stop-opacity=".3136"/><stop offset=".3441" stop-color="#547cc8" stop-opacity=".2533"/><stop offset=".4664" stop-color="#6388cd" stop-opacity=".2008"/><stop offset=".5782" stop-color="#7999d4" stop-opacity=".1529"/><stop offset=".6828" stop-color="#96aedd" stop-opacity=".1081"/><stop offset=".7821" stop-color="#b9c9e8" stop-opacity=".065515"/><stop offset=".8753" stop-color="#e1e8f5" stop-opacity=".025525"/><stop offset=".9349" stop-color="#ffffff" stop-opacity="0"/></linearGradient><radialGradient id="paint1_radial_1106_17930" cx="0" cy="0" gradientTransform="matrix(-205.688 0 0 -26.1489 227.69 446.798)" gradientUnits="userSpaceOnUse" r="1" xlink:href="#lg1"/><radialGradient id="paint2_radial_1106_17930" cx="0" cy="0" gradientTransform="matrix(-205.688 0 0 -27.3418 425.522 445.282)" gradientUnits="userSpaceOnUse" r="1" xlink:href="#lg1"/><radialGradient id="paint3_radial_1106_17930" cx="0" cy="0" gradientTransform="matrix(-235.113 0 0 -19.8965 538.989 412.993)" gradientUnits="userSpaceOnUse" r="1" xlink:href="#lg1"/><radialGradient id="paint4_radial_1106_17930" cx="0" cy="0" gradientTransform="matrix(-235.113 0 0 -19.8965 595.55 416.533)" gradientUnits="userSpaceOnUse" r="1" xlink:href="#lg1"/><radialGradient id="paint5_radial_1106_17930" cx="0" cy="0" gradientTransform="matrix(-389.4024633 648.43337106 -225.11745837 -135.18936059 502.972 240.065)" gradientUnits="userSpaceOnUse" r="1"><stop offset="0" stop-color="#77a7ff" stop-opacity=".4"/><stop offset=".8624" stop-color="#77a7ff" stop-opacity="0"/></radialGradient><linearGradient id="lg2"><stop offset="0" stop-color="#f6cfbe"/><stop offset="1" stop-color="#ffe8e1"/></linearGradient><linearGradient id="paint6_linear_1106_17930" gradientUnits="userSpaceOnUse" x1="540.302" x2="541.558" xlink:href="#lg2" y1="436.234" y2="420.539"/><linearGradient id="paint7_linear_1106_17930" gradientUnits="userSpaceOnUse" x1="550.46" x2="527.614" xlink:href="#lg2" y1="431.846" y2="431.65"/><linearGradient id="lg3"><stop offset="0" stop-color="#77a7ff"/><stop offset="1" stop-color="#bdd4ff"/></linearGradient><linearGradient id="paint8_linear_1106_17930" gradientUnits="userSpaceOnUse" x1="573.193" x2="572.89" xlink:href="#lg3" y1="162.154" y2="180.665"/><linearGradient id="lg4"><stop offset="0" stop-color="#1c53af"/><stop offset="1" stop-color="#277bff"/></linearGradient><linearGradient id="paint9_linear_1106_17930" gradientUnits="userSpaceOnUse" x1="572.653" x2="572.35" xlink:href="#lg4" y1="182.903" y2="160.75"/><linearGradient id="lg5"><stop offset="0" stop-color="#1b345f"/><stop offset="1" stop-color="#1c53af"/></linearGradient><linearGradient id="paint10_linear_1106_17930" gradientUnits="userSpaceOnUse" x1="466.177" x2="465.569" xlink:href="#lg5" y1="402.429" y2="388.734"/><linearGradient id="paint11_linear_1106_17930" gradientUnits="userSpaceOnUse" x1="679.892" x2="679.892" xlink:href="#lg5" y1="401.736" y2="387.776"/><linearGradient id="paint12_linear_1106_17930" gradientUnits="userSpaceOnUse" x1="489.543" x2="488.934" xlink:href="#lg5" y1="401.416" y2="387.721"/><linearGradient id="paint13_linear_1106_17930" gradientUnits="userSpaceOnUse" x1="655.28" x2="655.28" xlink:href="#lg5" y1="401.736" y2="387.776"/><linearGradient id="lg6"><stop offset=".00727057" stop-color="#ff7e23"/><stop offset="1" stop-color="#ffe2d9"/></linearGradient><linearGradient id="paint14_linear_1106_17930" gradientUnits="userSpaceOnUse" x1="587.133" x2="587.133" xlink:href="#lg6" y1="276.76" y2="-34.448"/><linearGradient id="lg7"><stop offset=".1256" stop-color="#ff7e23"/><stop offset=".2469" stop-color="#ff8027"/><stop offset=".3769" stop-color="#ff8734"/><stop offset=".5109" stop-color="#ff934a"/><stop offset=".6478" stop-color="#ffa468"/><stop offset=".7868" stop-color="#ffb98e"/><stop offset=".9257" stop-color="#ffd3bd"/><stop offset="1" stop-color="#ffe2d9"/></linearGradient><linearGradient id="paint15_linear_1106_17930" gradientUnits="userSpaceOnUse" x1="628.029" x2="662.422" xlink:href="#lg7" y1="170.238" y2="135.845"/><linearGradient id="paint16_linear_1106_17930" gradientUnits="userSpaceOnUse" x1="507.802" x2="542.741" xlink:href="#lg7" y1="99.9803" y2="65.0413"/><linearGradient id="paint17_linear_1106_17930" gradientUnits="userSpaceOnUse" x1="570.251" x2="606.204" xlink:href="#lg7" y1="97.8974" y2="61.9445"/><linearGradient id="paint18_linear_1106_17930" gradientUnits="userSpaceOnUse" x1="629.14" x2="666.388" y1="99.3059" y2="62.0577"><stop offset=".1256" stop-color="#ff7e23"/><stop offset=".2287" stop-color="#ff8027"/><stop offset=".3392" stop-color="#ff8734"/><stop offset=".4531" stop-color="#ff934a"/><stop offset=".5695" stop-color="#ffa468"/><stop offset=".6877" stop-color="#ffb98e"/><stop offset=".8057" stop-color="#ffd3bd"/><stop offset=".8689" stop-color="#ffe2d9"/></linearGradient><linearGradient id="paint19_linear_1106_17930" gradientUnits="userSpaceOnUse" x1="555.375" x2="557.411" xlink:href="#lg6" y1="202.993" y2="47.3137"/><linearGradient id="paint20_linear_1106_17930" gradientUnits="userSpaceOnUse" x1="473.568" x2="520.579" y1="201.607" y2="154.597"><stop offset="0" stop-color="#ff7e23"/><stop offset=".1621" stop-color="#ff9a56"/><stop offset=".3314" stop-color="#ffb485"/><stop offset=".4934" stop-color="#ffc8a9"/><stop offset=".6438" stop-color="#ffd6c4"/><stop offset=".7785" stop-color="#ffdfd3"/><stop offset=".8839" stop-color="#ffe2d9"/></linearGradient><linearGradient id="paint21_linear_1106_17930" gradientUnits="userSpaceOnUse" x1="541.856" x2="582.677" y1="193.686" y2="152.865"><stop offset="0" stop-color="#ff7e23"/><stop offset=".1498" stop-color="#ff9a56"/><stop offset=".3062" stop-color="#ffb485"/><stop offset=".4559" stop-color="#ffc8a9"/><stop offset=".595" stop-color="#ffd6c4"/><stop offset=".7194" stop-color="#ffdfd3"/><stop offset=".8168" stop-color="#ffe2d9"/></linearGradient><linearGradient id="paint22_linear_1106_17930" gradientUnits="userSpaceOnUse" x1="602.153" x2="639.708" y1="193.686" y2="156.132"><stop offset="0" stop-color="#ff7e23"/><stop offset=".1834" stop-color="#ff9a56"/><stop offset=".3749" stop-color="#ffb485"/><stop offset=".5582" stop-color="#ffc8a9"/><stop offset=".7284" stop-color="#ffd6c4"/><stop offset=".8807" stop-color="#ffdfd3"/><stop offset="1" stop-color="#ffe2d9"/></linearGradient><linearGradient id="paint23_linear_1106_17930" gradientUnits="userSpaceOnUse" x1="511.69" x2="549.805" y1="176.201" y2="138.085"><stop offset="0" stop-color="#ff7e23"/><stop offset=".1293" stop-color="#ff8027"/><stop offset=".2679" stop-color="#ff8734"/><stop offset=".4109" stop-color="#ff934a"/><stop offset=".5568" stop-color="#ffa468"/><stop offset=".7051" stop-color="#ffb98e"/><stop offset=".8531" stop-color="#ffd3bd"/><stop offset=".9324" stop-color="#ffe2d9"/></linearGradient><linearGradient id="paint24_linear_1106_17930" gradientUnits="userSpaceOnUse" x1="559.41" x2="606.766" xlink:href="#lg7" y1="188.847" y2="141.491"/><linearGradient id="paint25_linear_1106_17930" gradientUnits="userSpaceOnUse" x1="481.49" x2="518.351" y1="123.865" y2="87.0033"><stop offset="0" stop-color="#ff7e23"/><stop offset=".1227" stop-color="#ff8027"/><stop offset=".2541" stop-color="#ff8734"/><stop offset=".3897" stop-color="#ff934a"/><stop offset=".5281" stop-color="#ffa468"/><stop offset=".6687" stop-color="#ffb98e"/><stop offset=".8092" stop-color="#ffd3bd"/><stop offset=".8844" stop-color="#ffe2d9"/></linearGradient><linearGradient id="paint26_linear_1106_17930" gradientUnits="userSpaceOnUse" x1="508.095" x2="549.493" y1="144.885" y2="103.487"><stop offset="0" stop-color="#ff7e23"/><stop offset=".1801" stop-color="#ff9a56"/><stop offset=".3681" stop-color="#ffb485"/><stop offset=".5481" stop-color="#ffc8a9"/><stop offset=".7153" stop-color="#ffd6c4"/><stop offset=".8648" stop-color="#ffdfd3"/><stop offset=".9819" stop-color="#ffe2d9"/></linearGradient><linearGradient id="paint27_linear_1106_17930" gradientUnits="userSpaceOnUse" x1="541.856" x2="578.021" y1="123.865" y2="87.6994"><stop offset="0" stop-color="#ff7e23"/><stop offset=".1387" stop-color="#ff8027"/><stop offset=".2873" stop-color="#ff8734"/><stop offset=".4407" stop-color="#ff934a"/><stop offset=".5972" stop-color="#ffa468"/><stop offset=".7562" stop-color="#ffb98e"/><stop offset=".915" stop-color="#ffd3bd"/><stop offset="1" stop-color="#ffe2d9"/></linearGradient><linearGradient id="paint28_linear_1106_17930" gradientUnits="userSpaceOnUse" x1="563.312" x2="614.011" y1="150.034" y2="99.3356"><stop offset=".065494" stop-color="#ff7e23"/><stop offset=".2222" stop-color="#ff9a56"/><stop offset=".3859" stop-color="#ffb485"/><stop offset=".5426" stop-color="#ffc8a9"/><stop offset=".6881" stop-color="#ffd6c4"/><stop offset=".8182" stop-color="#ffdfd3"/><stop offset=".9202" stop-color="#ffe2d9"/></linearGradient><linearGradient id="lg8"><stop offset="0" stop-color="#ff7e23"/><stop offset="1" stop-color="#ffe2d9"/></linearGradient><linearGradient id="paint29_linear_1106_17930" gradientUnits="userSpaceOnUse" x1="601.785" x2="647.087" xlink:href="#lg8" y1="124.68" y2="77.9447"/><linearGradient id="paint30_linear_1106_17930" gradientUnits="userSpaceOnUse" x1="504.125" x2="563.371" xlink:href="#lg5" y1="250.363" y2="268.896"/><linearGradient id="paint31_linear_1106_17930" gradientUnits="userSpaceOnUse" x1="572.655" x2="572.655" xlink:href="#lg3" y1="366.337" y2="327.378"/><linearGradient id="paint32_linear_1106_17930" gradientUnits="userSpaceOnUse" x1="572.655" x2="572.655" xlink:href="#lg3" y1="313.451" y2="249.421"/><linearGradient id="paint33_linear_1106_17930" gradientUnits="userSpaceOnUse" x1="572.655" x2="572.655" xlink:href="#lg3" y1="229.727" y2="172.423"/><linearGradient id="lg9"><stop offset="0" stop-color="#bdd4ff"/><stop offset=".3063" stop-color="#c1d7ff"/><stop offset=".619" stop-color="#cddfff"/><stop offset=".9337" stop-color="#e2ecff"/><stop offset="1" stop-color="#e7efff"/></linearGradient><linearGradient id="paint34_linear_1106_17930" gradientUnits="userSpaceOnUse" x1="603.319" x2="603.319" xlink:href="#lg9" y1="173.129" y2="179.602"/><linearGradient id="paint35_linear_1106_17930" gradientUnits="userSpaceOnUse" x1="590.419" x2="590.419" xlink:href="#lg9" y1="173.129" y2="179.603"/><linearGradient id="paint36_linear_1106_17930" gradientUnits="userSpaceOnUse" x1="589.937" x2="589.937" xlink:href="#lg9" y1="173.128" y2="179.602"/><linearGradient id="paint37_linear_1106_17930" gradientUnits="userSpaceOnUse" x1="575.974" x2="575.974" xlink:href="#lg9" y1="173.129" y2="179.603"/><linearGradient id="paint38_linear_1106_17930" gradientUnits="userSpaceOnUse" x1="601.451" x2="601.451" xlink:href="#lg9" y1="173.129" y2="179.602"/><linearGradient id="paint39_linear_1106_17930" gradientUnits="userSpaceOnUse" x1="641.868" x2="641.868" xlink:href="#lg9" y1="173.129" y2="179.602"/><linearGradient id="paint40_linear_1106_17930" gradientUnits="userSpaceOnUse" x1="593.047" x2="593.047" xlink:href="#lg9" y1="173.128" y2="179.602"/><linearGradient id="paint41_linear_1106_17930" gradientUnits="userSpaceOnUse" x1="518.034" x2="518.034" xlink:href="#lg9" y1="173.129" y2="179.602"/><linearGradient id="paint42_linear_1106_17930" gradientUnits="userSpaceOnUse" x1="506.517" x2="506.517" xlink:href="#lg9" y1="173.129" y2="179.602"/><linearGradient id="paint43_linear_1106_17930" gradientUnits="userSpaceOnUse" x1="503.428" x2="503.428" xlink:href="#lg9" y1="173.129" y2="179.602"/><linearGradient id="paint44_linear_1106_17930" gradientUnits="userSpaceOnUse" x1="525.371" x2="525.371" xlink:href="#lg9" y1="173.129" y2="179.602"/><linearGradient id="paint45_linear_1106_17930" gradientUnits="userSpaceOnUse" x1="553.375" x2="553.375" xlink:href="#lg9" y1="173.128" y2="179.602"/><linearGradient id="paint46_linear_1106_17930" gradientUnits="userSpaceOnUse" x1="621.739" x2="621.739" xlink:href="#lg9" y1="173.128" y2="179.602"/><linearGradient id="paint47_linear_1106_17930" gradientUnits="userSpaceOnUse" x1="666.011" x2="666.011" xlink:href="#lg9" y1="173.128" y2="179.602"/><linearGradient id="paint48_linear_1106_17930" gradientUnits="userSpaceOnUse" x1="615.977" x2="615.977" xlink:href="#lg9" y1="173.129" y2="179.602"/><linearGradient id="paint49_linear_1106_17930" gradientUnits="userSpaceOnUse" x1="464.328" x2="464.328" xlink:href="#lg9" y1="173.129" y2="179.603"/><linearGradient id="paint50_linear_1106_17930" gradientUnits="userSpaceOnUse" x1="453.778" x2="453.778" xlink:href="#lg9" y1="173.129" y2="179.603"/><linearGradient id="paint51_linear_1106_17930" gradientUnits="userSpaceOnUse" x1="461.307" x2="461.307" xlink:href="#lg9" y1="173.129" y2="179.603"/><linearGradient id="paint52_linear_1106_17930" gradientUnits="userSpaceOnUse" x1="532.911" x2="534.125" xlink:href="#lg9" y1="246.586" y2="261.962"/><linearGradient id="paint53_linear_1106_17930" gradientUnits="userSpaceOnUse" x1="549.182" x2="550.396" xlink:href="#lg9" y1="245.302" y2="260.677"/><linearGradient id="paint54_linear_1106_17930" gradientUnits="userSpaceOnUse" x1="546.2" x2="547.414" xlink:href="#lg9" y1="245.537" y2="260.913"/><linearGradient id="paint55_linear_1106_17930" gradientUnits="userSpaceOnUse" x1="560.209" x2="561.423" xlink:href="#lg9" y1="244.431" y2="259.806"/><linearGradient id="paint56_linear_1106_17930" gradientUnits="userSpaceOnUse" x1="535.134" x2="536.348" xlink:href="#lg9" y1="246.411" y2="261.786"/><linearGradient id="paint57_linear_1106_17930" gradientUnits="userSpaceOnUse" x1="493.4" x2="494.614" xlink:href="#lg9" y1="249.705" y2="265.081"/><linearGradient id="paint58_linear_1106_17930" gradientUnits="userSpaceOnUse" x1="545.089" x2="546.303" xlink:href="#lg9" y1="245.625" y2="261"/><linearGradient id="paint59_linear_1106_17930" gradientUnits="userSpaceOnUse" x1="615.745" x2="616.959" xlink:href="#lg9" y1="240.047" y2="255.422"/><linearGradient id="paint60_linear_1106_17930" gradientUnits="userSpaceOnUse" x1="627.543" x2="628.757" xlink:href="#lg9" y1="239.115" y2="254.491"/><linearGradient id="paint61_linear_1106_17930" gradientUnits="userSpaceOnUse" x1="629.639" x2="630.853" xlink:href="#lg9" y1="238.95" y2="254.325"/><linearGradient id="paint62_linear_1106_17930" gradientUnits="userSpaceOnUse" x1="607.868" x2="609.082" xlink:href="#lg9" y1="240.668" y2="256.044"/><linearGradient id="paint63_linear_1106_17930" gradientUnits="userSpaceOnUse" x1="579.657" x2="580.87" xlink:href="#lg9" y1="242.896" y2="258.271"/><linearGradient id="paint64_linear_1106_17930" gradientUnits="userSpaceOnUse" x1="515.09" x2="516.304" xlink:href="#lg9" y1="247.993" y2="263.369"/><linearGradient id="paint65_linear_1106_17930" gradientUnits="userSpaceOnUse" x1="471.243" x2="472.457" xlink:href="#lg9" y1="251.455" y2="266.83"/><linearGradient id="paint66_linear_1106_17930" gradientUnits="userSpaceOnUse" x1="519.082" x2="520.296" xlink:href="#lg9" y1="247.678" y2="263.053"/><linearGradient id="paint67_linear_1106_17930" gradientUnits="userSpaceOnUse" x1="674.722" x2="675.935" xlink:href="#lg9" y1="235.391" y2="250.766"/><linearGradient id="paint68_linear_1106_17930" gradientUnits="userSpaceOnUse" x1="683.893" x2="685.107" xlink:href="#lg9" y1="234.667" y2="250.042"/><linearGradient id="paint69_linear_1106_17930" gradientUnits="userSpaceOnUse" x1="674.283" x2="675.497" xlink:href="#lg9" y1="235.425" y2="250.8"/><linearGradient id="paint70_linear_1106_17930" gradientUnits="userSpaceOnUse" x1="492.664" x2="501.161" xlink:href="#lg9" y1="224.191" y2="255.751"/><linearGradient id="paint71_linear_1106_17930" gradientUnits="userSpaceOnUse" x1="508.843" x2="517.34" xlink:href="#lg9" y1="219.836" y2="251.396"/><linearGradient id="paint72_linear_1106_17930" gradientUnits="userSpaceOnUse" x1="505.161" x2="513.658" xlink:href="#lg9" y1="220.826" y2="252.386"/><linearGradient id="paint73_linear_1106_17930" gradientUnits="userSpaceOnUse" x1="517.724" x2="526.221" xlink:href="#lg9" y1="217.444" y2="249.004"/><linearGradient id="paint74_linear_1106_17930" gradientUnits="userSpaceOnUse" x1="493.226" x2="501.723" xlink:href="#lg9" y1="224.04" y2="255.6"/><linearGradient id="paint75_linear_1106_17930" gradientUnits="userSpaceOnUse" x1="460.47" x2="468.967" xlink:href="#lg9" y1="232.859" y2="264.419"/><linearGradient id="paint76_linear_1106_17930" gradientUnits="userSpaceOnUse" x1="511.141" x2="519.638" xlink:href="#lg9" y1="219.217" y2="250.777"/><linearGradient id="paint77_linear_1106_17930" gradientUnits="userSpaceOnUse" x1="578.324" x2="586.821" xlink:href="#lg9" y1="201.129" y2="232.689"/><linearGradient id="paint78_linear_1106_17930" gradientUnits="userSpaceOnUse" x1="587.937" x2="596.434" xlink:href="#lg9" y1="198.541" y2="230.101"/><linearGradient id="paint79_linear_1106_17930" gradientUnits="userSpaceOnUse" x1="593.932" x2="602.429" xlink:href="#lg9" y1="196.927" y2="228.487"/><linearGradient id="paint80_linear_1106_17930" gradientUnits="userSpaceOnUse" x1="573.355" x2="581.852" xlink:href="#lg9" y1="202.467" y2="234.026"/><linearGradient id="paint81_linear_1106_17930" gradientUnits="userSpaceOnUse" x1="548.468" x2="556.964" xlink:href="#lg9" y1="209.167" y2="240.727"/><linearGradient id="paint82_linear_1106_17930" gradientUnits="userSpaceOnUse" x1="489.105" x2="497.601" xlink:href="#lg9" y1="225.149" y2="256.709"/><linearGradient id="paint83_linear_1106_17930" gradientUnits="userSpaceOnUse" x1="447.289" x2="455.785" xlink:href="#lg9" y1="236.408" y2="267.968"/><linearGradient id="paint84_linear_1106_17930" gradientUnits="userSpaceOnUse" x1="495.903" x2="504.4" xlink:href="#lg9" y1="223.341" y2="254.901"/><linearGradient id="paint85_linear_1106_17930" gradientUnits="userSpaceOnUse" x1="625.886" x2="634.383" xlink:href="#lg9" y1="188.323" y2="219.883"/><linearGradient id="paint86_linear_1106_17930" gradientUnits="userSpaceOnUse" x1="636.197" x2="644.694" xlink:href="#lg9" y1="185.548" y2="217.108"/><linearGradient id="paint87_linear_1106_17930" gradientUnits="userSpaceOnUse" x1="624.314" x2="632.811" xlink:href="#lg9" y1="188.747" y2="220.307"/><linearGradient id="paint88_linear_1106_17930" gradientUnits="userSpaceOnUse" x1="674.051" x2="685.381" xlink:href="#lg4" y1="225.048" y2="225.048"/><linearGradient id="paint89_linear_1106_17930" gradientUnits="userSpaceOnUse" x1="674.051" x2="685.381" xlink:href="#lg4" y1="203.805" y2="203.805"/><linearGradient id="paint90_linear_1106_17930" gradientUnits="userSpaceOnUse" x1="459.808" x2="471.138" xlink:href="#lg4" y1="225.048" y2="225.048"/><linearGradient id="paint91_linear_1106_17930" gradientUnits="userSpaceOnUse" x1="459.808" x2="471.138" xlink:href="#lg4" y1="203.805" y2="203.805"/><linearGradient id="paint92_linear_1106_17930" gradientUnits="userSpaceOnUse" x1="568.953" x2="582.912" xlink:href="#lg4" y1="339.727" y2="303.616"/><linearGradient id="paint93_linear_1106_17930" gradientUnits="userSpaceOnUse" x1="574.484" x2="553.646" xlink:href="#lg5" y1="330.766" y2="293.744"/><linearGradient id="paint94_linear_1106_17930" gradientUnits="userSpaceOnUse" x1="574.061" x2="574.061" y1="416.14" y2="334.963"><stop offset="0" stop-color="#ffe2d9"/><stop offset=".7795" stop-color="#ff7e23"/></linearGradient><linearGradient id="paint95_linear_1106_17930" gradientUnits="userSpaceOnUse" x1="674.051" x2="685.381" xlink:href="#lg4" y1="371.012" y2="371.012"/><linearGradient id="paint96_linear_1106_17930" gradientUnits="userSpaceOnUse" x1="674.051" x2="685.381" xlink:href="#lg4" y1="349.77" y2="349.77"/><linearGradient id="paint97_linear_1106_17930" gradientUnits="userSpaceOnUse" x1="674.051" x2="685.381" xlink:href="#lg4" y1="298.788" y2="298.788"/><linearGradient id="paint98_linear_1106_17930" gradientUnits="userSpaceOnUse" x1="674.051" x2="685.381" xlink:href="#lg4" y1="277.546" y2="277.546"/><linearGradient id="lg10"><stop offset="0" stop-color="#d86412"/><stop offset="1" stop-color="#8f420b"/></linearGradient><linearGradient id="paint99_linear_1106_17930" gradientUnits="userSpaceOnUse" x1="443.211" x2="560.954" xlink:href="#lg10" y1="371.165" y2="370.356"/><linearGradient id="paint100_linear_1106_17930" gradientUnits="userSpaceOnUse" x1="443.065" x2="560.808" xlink:href="#lg10" y1="349.924" y2="349.115"/><linearGradient id="paint101_linear_1106_17930" gradientUnits="userSpaceOnUse" x1="442.714" x2="560.457" xlink:href="#lg10" y1="298.945" y2="298.135"/><linearGradient id="paint102_linear_1106_17930" gradientUnits="userSpaceOnUse" x1="442.569" x2="560.311" xlink:href="#lg10" y1="277.703" y2="276.894"/><linearGradient id="lg11"><stop offset="0" stop-color="#0e1b33"/><stop offset="1" stop-color="#233b67"/></linearGradient><linearGradient id="paint103_linear_1106_17930" gradientUnits="userSpaceOnUse" x1="442.38" x2="426.383" xlink:href="#lg11" y1="125.008" y2="129.517"/><linearGradient id="paint104_linear_1106_17930" gradientUnits="userSpaceOnUse" x1="443.459" x2="415.402" xlink:href="#lg8" y1="128.042" y2="109.81"/><linearGradient id="paint105_linear_1106_17930" gradientUnits="userSpaceOnUse" x1="447.056" x2="419" xlink:href="#lg8" y1="140.804" y2="122.572"/><linearGradient id="paint106_linear_1106_17930" gradientUnits="userSpaceOnUse" x1="733.09" x2="745.756" xlink:href="#lg11" y1="46.2485" y2="46.2485"/><linearGradient id="paint107_linear_1106_17930" gradientUnits="userSpaceOnUse" x1="732.359" x2="765.088" xlink:href="#lg8" y1="52.1639" y2="45.2161"/><linearGradient id="paint108_linear_1106_17930" gradientUnits="userSpaceOnUse" x1="720.791" x2="753.52" xlink:href="#lg8" y1="45.6837" y2="38.7359"/><linearGradient id="paint109_linear_1106_17930" gradientUnits="userSpaceOnUse" x1="750.028" x2="758.15" xlink:href="#lg11" y1="241.335" y2="226.836"/><linearGradient id="paint110_linear_1106_17930" gradientUnits="userSpaceOnUse" x1="747.044" x2="779.773" xlink:href="#lg8" y1="239.986" y2="233.038"/><linearGradient id="paint111_linear_1106_17930" gradientUnits="userSpaceOnUse" x1="735.476" x2="768.205" xlink:href="#lg8" y1="233.506" y2="226.558"/><linearGradient id="paint112_linear_1106_17930" gradientUnits="userSpaceOnUse" x1="702.849" x2="711.509" xlink:href="#lg11" y1="146.617" y2="150.252"/><linearGradient id="paint113_linear_1106_17930" gradientUnits="userSpaceOnUse" x1="703.461" x2="709.453" xlink:href="#lg8" y1="144.9" y2="162.834"/><linearGradient id="paint114_linear_1106_17930" gradientUnits="userSpaceOnUse" x1="706.361" x2="712.353" xlink:href="#lg8" y1="137.991" y2="155.925"/><linearGradient id="paint115_linear_1106_17930" gradientUnits="userSpaceOnUse" x1="135.957" x2="154.784" xlink:href="#lg2" y1="437.783" y2="429.476"/><radialGradient id="paint116_radial_1106_17930" cx="0" cy="0" gradientTransform="matrix(312.636 0 0 32.3097 323.947 451.337)" gradientUnits="userSpaceOnUse" r="1"><stop offset="0" stop-color="#4d4c6a" stop-opacity=".3"/><stop offset=".0879645" stop-color="#575673" stop-opacity=".2663"/><stop offset=".2399" stop-color="#73728a" stop-opacity=".2082"/><stop offset=".4376" stop-color="#a0a0b0" stop-opacity=".1325"/><stop offset=".6708" stop-color="#dedee4" stop-opacity=".043261"/><stop offset=".7838" stop-color="#ffffff" stop-opacity="0"/></radialGradient><linearGradient id="paint117_linear_1106_17930" gradientUnits="userSpaceOnUse" x1="211.048" x2="230.004" xlink:href="#lg2" y1="310.887" y2="324.964"/><linearGradient id="lg12"><stop offset="0" stop-color="#233b67"/><stop offset="1" stop-color="#0e1b33"/></linearGradient><linearGradient id="paint118_linear_1106_17930" gradientUnits="userSpaceOnUse" x1="191.537" x2="326.678" xlink:href="#lg12" y1="440.471" y2="418.622"/><linearGradient id="paint119_linear_1106_17930" gradientUnits="userSpaceOnUse" x1="235.916" x2="324.232" xlink:href="#lg12" y1="382.155" y2="404.632"/><linearGradient id="lg13"><stop offset="0" stop-color="#233b67"/><stop offset=".2707" stop-color="#1f365e"/><stop offset=".7052" stop-color="#162747"/><stop offset="1" stop-color="#0e1b33"/></linearGradient><linearGradient id="paint120_linear_1106_17930" gradientUnits="userSpaceOnUse" x1="533.163" x2="526.43" xlink:href="#lg13" y1="311.298" y2="342.194"/><linearGradient id="paint121_linear_1106_17930" gradientUnits="userSpaceOnUse" x1="386.633" x2="425.242" xlink:href="#lg13" y1="318.64" y2="395.336"/><linearGradient id="paint122_linear_1106_17930" gradientUnits="userSpaceOnUse" x1="514.014" x2="492.086" y1="325.696" y2="300.272"><stop offset=".0000005792" stop-color="#233b67"/><stop offset=".2707" stop-color="#1f365e"/><stop offset=".7052" stop-color="#162747"/><stop offset="1" stop-color="#0e1b33"/></linearGradient><linearGradient id="lg14"><stop offset=".4236" stop-color="#0e1b33"/><stop offset=".6738" stop-color="#22293b"/><stop offset=".9981" stop-color="#393944"/></linearGradient><linearGradient id="paint123_linear_1106_17930" gradientUnits="userSpaceOnUse" x1="474.872" x2="499.297" xlink:href="#lg14" y1="271.992" y2="266.724"/><linearGradient id="paint124_linear_1106_17930" gradientUnits="userSpaceOnUse" x1="475.146" x2="495.821" xlink:href="#lg2" y1="291.831" y2="313.908"/><linearGradient id="paint125_linear_1106_17930" gradientUnits="userSpaceOnUse" x1="486.605" x2="483.662" xlink:href="#lg14" y1="239.053" y2="284.837"/><linearGradient id="paint126_linear_1106_17930" gradientUnits="userSpaceOnUse" x1="497.209" x2="491.531" xlink:href="#lg14" y1="280.607" y2="300.272"/><linearGradient id="paint127_linear_1106_17930" gradientUnits="userSpaceOnUse" x1="489.081" x2="489.096" y1="234.686" y2="234.399"><stop offset="0" stop-color="#565378"/><stop offset=".2707" stop-color="#514f6f"/><stop offset=".7052" stop-color="#444358"/><stop offset="1" stop-color="#393944"/></linearGradient><linearGradient id="paint128_linear_1106_17930" gradientUnits="userSpaceOnUse" x1="465.27" x2="478.722" xlink:href="#lg13" y1="277.18" y2="343.286"/><linearGradient id="paint129_linear_1106_17930" gradientUnits="userSpaceOnUse" x1="525.755" x2="433.82" xlink:href="#lg13" y1="338.58" y2="431.657"/><linearGradient id="lg15"><stop offset="0" stop-color="#ffffff"/><stop offset=".9981" stop-color="#e8e8e9"/></linearGradient><linearGradient id="paint130_linear_1106_17930" gradientUnits="userSpaceOnUse" x1="125.393" x2="116.531" xlink:href="#lg15" y1="442.384" y2="432.004"/><linearGradient id="paint131_linear_1106_17930" gradientUnits="userSpaceOnUse" x1="200.705" x2="196.05" xlink:href="#lg15" y1="316.379" y2="303.548"/><linearGradient id="paint132_linear_1106_17930" gradientUnits="userSpaceOnUse" x1="842.421" x2="834.878" xlink:href="#lg11" y1="135.927" y2="121.117"/><linearGradient id="paint133_linear_1106_17930" gradientUnits="userSpaceOnUse" x1="839.606" x2="852.016" xlink:href="#lg8" y1="137.609" y2="106.535"/><linearGradient id="paint134_linear_1106_17930" gradientUnits="userSpaceOnUse" x1="827.79" x2="840.2" xlink:href="#lg8" y1="143.626" y2="112.553"/><linearGradient id="paint135_linear_1106_17930" gradientUnits="userSpaceOnUse" x1="295.817" x2="288.274" xlink:href="#lg11" y1="109.438" y2="94.6278"/><linearGradient id="paint136_linear_1106_17930" gradientUnits="userSpaceOnUse" x1="293.002" x2="305.413" xlink:href="#lg8" y1="111.12" y2="80.0465"/><linearGradient id="paint137_linear_1106_17930" gradientUnits="userSpaceOnUse" x1="281.186" x2="293.596" xlink:href="#lg8" y1="117.137" y2="86.0639"/><linearGradient id="paint138_linear_1106_17930" gradientUnits="userSpaceOnUse" x1="352.406" x2="347.484" xlink:href="#lg11" y1="173.596" y2="183.675"/><linearGradient id="paint139_linear_1106_17930" gradientUnits="userSpaceOnUse" x1="354.464" x2="332.675" xlink:href="#lg8" y1="174.462" y2="180.388"/><linearGradient id="paint140_linear_1106_17930" gradientUnits="userSpaceOnUse" x1="362.505" x2="340.717" xlink:href="#lg8" y1="178.388" y2="184.314"/><clipPath id="clip0_1106_17930"><path d="M0 0H945V495H0Z"/></clipPath><g clip-path="url(#clip0_1106_17930)"><path d="M945.5 0H-.399902V495H945.5V0Z" fill="url(#paint0_linear_1106_17930)"/><path d="M227.7 472.7C341.305 472.7 433.4 461.015 433.4 446.6 433.4 432.185 341.305 420.5 227.7 420.5 114.095 420.5 22 432.185 22 446.6 22 461.015 114.095 472.7 227.7 472.7Z" fill="url(#paint1_radial_1106_17930)" opacity=".8"/><path d="M425.5 472.7C539.105 472.7 631.2 460.477 631.2 445.4 631.2 430.323 539.105 418.1 425.5 418.1 311.895 418.1 219.8 430.323 219.8 445.4 219.8 460.477 311.895 472.7 425.5 472.7Z" fill="url(#paint2_radial_1106_17930)" opacity=".8"/><path d="M539 433.2C668.842 433.2 774.1 424.29 774.1 413.3 774.1 402.309 668.842 393.4 539 393.4 409.158 393.4 303.9 402.309 303.9 413.3 303.9 424.29 409.158 433.2 539 433.2Z" fill="url(#paint3_radial_1106_17930)" opacity=".5"/><path d="M595.5 436.8C725.342 436.8 830.6 427.89 830.6 416.9 830.6 405.91 725.342 397 595.5 397 465.658 397 360.4 405.91 360.4 416.9 360.4 427.89 465.658 436.8 595.5 436.8Z" fill="url(#paint4_radial_1106_17930)" opacity=".5"/><path d="M.900146 278.1H944.1V495H.900146V278.1Z" fill="url(#paint5_radial_1106_17930)"/><path d="M519.8 424.2C519.8 424.2 522.9 424.6 523.6 424.6 524.3 424.7 542 422.3 542.9 422.3 543.9 422.4 553.4 424.8 554.1 425.3 554.8 425.8 561.9 434.5 561.9 434.5 561.9 434.5 561.8 436.5 559.9 435.9 558.9 436.8 558.5 436.8 557.6 436.5 556.8 436.2 549.7 432.2 549.7 432.2L544.3 431 542.9 432.1 553.2 437.9C553.2 437.9 553.7 439.2 552.4 439.4 551.1 439.6 540.4 435.1 540.4 435.1 540.4 435.1 532.4 435.6 530.6 435.6 528.8 435.6 524 434.2 524 434.2L518.9 435.4 519.8 424.2Z" fill="url(#paint6_linear_1106_17930)"/><path d="M559.8 436 560.3 436.1C560.1 435.9 554.8 430.4 552.7 429.1 551.6 428.5 548.4 427.6 548.2 427.6L548.1 427.9C548.1 427.9 551.5 428.8 552.5 429.4 554.6 430.6 559.8 436 559.8 436Z" fill="url(#paint7_linear_1106_17930)"/><path d="M706.5 182.8H439.2L467 156.9H675.5L706.5 182.8Z" fill="url(#paint8_linear_1106_17930)"/><path d="M706.3 182.8H439L466.8 156.9H675.3L706.3 182.8Z" fill="url(#paint9_linear_1106_17930)"/><path d="M467.6 418.1H463.2C458.2 418.1 454.1 414 454.1 409V361.5C454.1 356.5 458.2 352.4 463.2 352.4H467.6C472.6 352.4 476.7 356.5 476.7 361.5V409C476.7 414 472.6 418.1 467.6 418.1Z" fill="url(#paint10_linear_1106_17930)"/><path d="M682.1 418.1H677.7C672.7 418.1 668.6 414 668.6 409V361.5C668.6 356.5 672.7 352.4 677.7 352.4H682.1C687.1 352.4 691.2 356.5 691.2 361.5V409C691.2 414 687.1 418.1 682.1 418.1Z" fill="url(#paint11_linear_1106_17930)"/><path d="M490.1 401.1H486.7C482.8 401.1 479.6 397.9 479.6 394V357C479.6 353.1 482.8 349.9 486.7 349.9H490.1C494 349.9 497.2 353.1 497.2 357V394C497.2 397.9 494 401.1 490.1 401.1Z" fill="url(#paint12_linear_1106_17930)"/><path d="M657 401.1H653.6C649.7 401.1 646.5 397.9 646.5 394V357C646.5 353.1 649.7 349.9 653.6 349.9H657C660.9 349.9 664.1 353.1 664.1 357V394C664.1 397.9 660.9 401.1 657 401.1Z" fill="url(#paint13_linear_1106_17930)"/><path d="M675.7 51.5H498.5V265.9H675.7V51.5Z" fill="url(#paint14_linear_1106_17930)"/><path d="M536.9 168.2H516.7L506.7 185.7 516.7 203.1H536.9L546.9 185.7 536.9 168.2Z" fill="#ff7e23"/><path d="M536.9 133.4H516.7L506.7 150.8 516.7 168.2H536.9L546.9 150.8 536.9 133.4Z" fill="#d86412"/><path d="M536.9 203.1H516.7L506.7 220.5 516.7 238H536.9L546.9 220.5 536.9 203.1Z" fill="#8f420b"/><path d="M567.1 185.7H546.9L536.9 203.1 546.9 220.5H567.1L577.1 203.1 567.1 185.7Z" fill="#d86412"/><path d="M567.1 150.8H546.9L536.9 168.2 546.9 185.7H567.1L577.1 168.2 567.1 150.8Z" fill="#8f420b"/><path d="M567.1 220.5H546.9L536.9 238 546.9 255.4H567.1L577.1 238 567.1 220.5Z" fill="#ff7e23"/><path d="M597.2 168.2H577.1L567 185.7 577.1 203.1H597.2L607.3 185.7 597.2 168.2Z" fill="#ff7e23"/><path d="M597.2 133.4H577.1L567 150.8 577.1 168.2H597.2L607.3 150.8 597.2 133.4Z" fill="#d86412"/><path d="M597.2 203.1H577.1L567 220.5 577.1 238H597.2L607.3 220.5 597.2 203.1Z" fill="#8f420b"/><path d="M627.4 185.7H607.3L597.2 203.1 607.3 220.5H627.4L637.5 203.1 627.4 185.7Z" fill="#d86412"/><path d="M627.4 150.8H607.3L597.2 168.2 607.3 185.7H627.4L637.5 168.2 627.4 150.8Z" fill="#8f420b"/><path d="M627.4 220.5H607.3L597.2 238 607.3 255.4H627.4L637.5 238 627.4 220.5Z" fill="#ff7e23"/><path d="M657.5 168.2H637.4L627.3 185.7 637.4 203.1H657.5L667.6 185.7 657.5 168.2Z" fill="#ff7e23"/><path d="M657.5 133.4H637.4L627.3 150.8 637.4 168.2H657.5L667.6 150.8 657.5 133.4Z" fill="url(#paint15_linear_1106_17930)"/><path d="M657.5 203.1H637.4L627.3 220.5 637.4 238H657.5L667.6 220.5 657.5 203.1Z" fill="#ff7e23"/><path d="M536.9 98.5H516.7L506.7 115.9 516.7 133.3H536.9L546.9 115.9 536.9 98.5Z" fill="#8f420b"/><path d="M567.1 115.9H546.9L536.9 133.3 546.9 150.8H567.1L577.1 133.3 567.1 115.9Z" fill="#ff7e23"/><path d="M597.2 98.5H577.1L567 115.9 577.1 133.3H597.2L607.3 115.9 597.2 98.5Z" fill="#8f420b"/><path d="M627.4 115.9H607.3L597.2 133.3 607.3 150.8H627.4L637.5 133.3 627.4 115.9Z" fill="#ff7e23"/><path d="M657.5 98.5H637.4L627.3 115.9 637.4 133.3H657.5L667.6 115.9 657.5 98.5Z" fill="#ff7e23"/><path d="M536.9 63.5H516.7L506.7 81 516.7 98.4H536.9L546.9 81 536.9 63.5Z" fill="url(#paint16_linear_1106_17930)"/><path d="M567.1 81H546.9L536.9 98.4 546.9 115.8H567.1L577.1 98.4 567.1 81Z" fill="#d86412"/><path d="M597.2 63.5H577.1L567 81 577.1 98.4H597.2L607.3 81 597.2 63.5Z" fill="url(#paint17_linear_1106_17930)"/><path d="M627.4 81H607.3L597.2 98.4 607.3 115.8H627.4L637.5 98.4 627.4 81Z" fill="#d86412"/><path d="M657.5 63.5H637.4L627.3 81 637.4 98.4H657.5L667.6 81 657.5 63.5Z" fill="url(#paint18_linear_1106_17930)"/><path d="M681.1 42.7998H493.1V51.4998H681.1V42.7998Z" fill="#ff7e23"/><path d="M644.2 80.7002H467V295.1H644.2V80.7002Z" fill="url(#paint19_linear_1106_17930)"/><path d="M505.3 197.4H485.2L475.1 214.8 485.2 232.2H505.3L515.4 214.8 505.3 197.4Z" fill="#ff7e23"/><path d="M505.3 162.5H485.2L475.1 179.9 485.2 197.4H505.3L515.4 179.9 505.3 162.5Z" fill="url(#paint20_linear_1106_17930)"/><path d="M505.3 232.2H485.2L475.1 249.7 485.2 267.1H505.3L515.4 249.7 505.3 232.2Z" fill="#8f420b"/><path d="M535.5 214.8H515.4L505.3 232.2 515.4 249.7H535.5L545.6 232.2 535.5 214.8Z" fill="#d86412"/><path d="M535.5 179.9H515.4L505.3 197.4 515.4 214.8H535.5L545.6 197.4 535.5 179.9Z" fill="#8f420b"/><path d="M535.5 249.7H515.4L505.3 267.1 515.4 284.5H535.5L545.6 267.1 535.5 249.7Z" fill="#ff7e23"/><path d="M565.7 197.4H545.5L535.5 214.8 545.5 232.2H565.7L575.7 214.8 565.7 197.4Z" fill="#ff7e23"/><path d="M565.7 162.5H545.5L535.5 179.9 545.5 197.4H565.7L575.7 179.9 565.7 162.5Z" fill="url(#paint21_linear_1106_17930)"/><path d="M565.7 232.2H545.5L535.5 249.7 545.5 267.1H565.7L575.7 249.7 565.7 232.2Z" fill="#8f420b"/><path d="M595.9 214.8H575.7L565.7 232.2 575.7 249.7H595.9L605.9 232.2 595.9 214.8Z" fill="#d86412"/><path d="M595.9 179.9H575.7L565.7 197.4 575.7 214.8H595.9L605.9 197.4 595.9 179.9Z" fill="#8f420b"/><path d="M595.9 249.7H575.7L565.7 267.1 575.7 284.5H595.9L605.9 267.1 595.9 249.7Z" fill="#ff7e23"/><path d="M626 197.4H605.8L595.8 214.8 605.8 232.2H626L636 214.8 626 197.4Z" fill="#ff7e23"/><path d="M626 162.5H605.8L595.8 179.9 605.8 197.4H626L636 179.9 626 162.5Z" fill="url(#paint22_linear_1106_17930)"/><path d="M626 232.2H605.8L595.8 249.7 605.8 267.1H626L636 249.7 626 232.2Z" fill="#8f420b"/><path d="M505.3 127.6H485.2L475.1 145 485.2 162.5H505.3L515.4 145 505.3 127.6Z" fill="#ff7e23"/><path d="M535.5 145H515.4L505.3 162.4 515.4 179.9H535.5L545.6 162.4 535.5 145Z" fill="url(#paint23_linear_1106_17930)"/><path d="M565.7 127.6H545.5L535.5 145 545.5 162.5H565.7L575.7 145 565.7 127.6Z" fill="#ff7e23"/><path d="M595.9 145H575.7L565.7 162.4 575.7 179.9H595.9L605.9 162.4 595.9 145Z" fill="url(#paint24_linear_1106_17930)"/><path d="M626 127.6H605.8L595.8 145 605.8 162.5H626L636 145 626 127.6Z" fill="#ff7e23"/><path d="M505.3 92.7002H485.2L475.1 110.1 485.2 127.5H505.3L515.4 110.1 505.3 92.7002Z" fill="url(#paint25_linear_1106_17930)"/><path d="M535.5 110.1H515.4L505.3 127.5 515.4 145H535.5L545.6 127.5 535.5 110.1Z" fill="url(#paint26_linear_1106_17930)"/><path d="M565.7 92.7002H545.5L535.5 110.1 545.5 127.5H565.7L575.7 110.1 565.7 92.7002Z" fill="url(#paint27_linear_1106_17930)"/><path d="M595.9 110.1H575.7L565.7 127.5 575.7 145H595.9L605.9 127.5 595.9 110.1Z" fill="url(#paint28_linear_1106_17930)"/><path d="M626 92.7002H605.8L595.8 110.1 605.8 127.5H626L636 110.1 626 92.7002Z" fill="url(#paint29_linear_1106_17930)"/><path d="M649.6 72H461.6V80.7H649.6V72Z" fill="#ff7e23"/><path d="M689.7 362.3H455.6C450.7 362.3 446.7 358.3 446.7 353.4V190.2C446.7 185.3 450.7 181.3 455.6 181.3H689.7C694.6 181.3 698.6 185.3 698.6 190.2V353.5C698.6 358.3 694.6 362.3 689.7 362.3Z" fill="url(#paint30_linear_1106_17930)"/><path d="M707.4 330.7V387.5C707.4 390.9 704.6 393.6 701.3 393.6H444C440.6 393.6 437.9 390.9 437.9 387.5V330.7C437.9 327.3 440.6 324.6 444 324.6H701.2C704.6 324.6 707.4 327.4 707.4 330.7Z" fill="url(#paint31_linear_1106_17930)"/><path d="M707.4 258.5V315.3C707.4 318.7 704.6 321.4 701.3 321.4H444C440.7 321.4 438 318.7 437.9 315.4V315.3 258.5C437.9 255.1 440.6 252.4 444 252.4H701.2C704.6 252.4 707.4 255.1 707.4 258.5Z" fill="url(#paint32_linear_1106_17930)"/><path d="M707.4 186.3V243.1C707.4 246.5 704.6 249.2 701.3 249.2H444C440.6 249.2 437.9 246.5 437.9 243.1V186.3C437.9 182.9 440.6 180.2 444 180.2H701.2C704.6 180.2 707.4 182.9 707.4 186.3Z" fill="url(#paint33_linear_1106_17930)"/><g opacity=".24"><path d="M594.9 241.5C598.6 241.4 602.4 241.6 606.1 241.2 608.9 241.2 611.3 240.6 613.5 239.5 612.4 239.5 611.3 239.4 610.1 239.4 607.6 238.9 588.5 238.1 594.3 242.1 594 241.9 594.2 241.5 594.9 241.5Z" fill="url(#paint34_linear_1106_17930)" opacity=".24"/><path d="M706.7 236.9C685.7 240.4 665.3 236.8 645 232.8 627.4 229.3 610.5 227.1 592.2 227.9 552.5 229.5 514.6 239.3 474.6 233.4 473.7 233.3 472.9 234 474.1 234.2 513.7 242.1 554.2 230.3 594 229 616.9 228.3 637.8 233 659.7 236.9 675.4 239.7 691.7 241.2 707.4 237.7V237C707.2 236.9 706.9 236.8 706.7 236.9Z" fill="url(#paint35_linear_1106_17930)" opacity=".24"/><path d="M673 241.4C646.9 241.4 623.1 230.3 597.2 232.2 582.5 233.3 568.2 235.8 553.5 237.2 538 238.7 523 237.9 507.5 238 506.5 238 506 238.8 507.2 238.9 536 241.3 562.5 237 590.8 234 599.5 233.1 607.6 232.4 616.2 234 622.4 235.2 628.5 236.7 634.8 237.9 647.4 240.4 660 242.5 673.1 241.7 673.5 241.7 673.3 241.4 673 241.4Z" fill="url(#paint36_linear_1106_17930)" opacity=".24"/><path d="M620.5 235.6C613.8 233.4 605.7 233.7 598.6 234.4 586.8 235.6 575.4 238.5 563.7 240 550.5 241.7 537.3 242 523.9 241.9 523.5 241.9 523.5 242.2 523.9 242.2 537.4 243.2 551 242.8 564.4 241.3 578.2 239.8 591.8 235.8 605.8 235.5 609 235.4 624.3 235.7 624.4 239.8 624.5 243.2 617.5 242.8 614.9 242.8 611.3 242.8 598.2 244.2 595.2 242.6 594.9 242.4 594.6 242.3 594.4 242.1 594.5 242.2 594.7 242.2 594.9 242.2 602.9 242.7 610.5 242.3 617.7 239.5 618.7 239.1 617.5 238.6 616.9 238.5 615.3 238.4 580 236.8 589.9 242.2 595 245 607.4 243.5 613.2 243.6 616.3 243.6 626 245.1 628.1 242.4 630.2 239.8 623 236.4 620.5 235.6ZM610.1 239.4C611.2 239.4 612.4 239.5 613.5 239.5 611.3 240.7 608.9 241.2 606.1 241.2 602.4 241.6 598.6 241.4 594.9 241.5 594.2 241.5 594 241.9 594.3 242.1 588.5 238.1 607.5 238.9 610.1 239.4Z" fill="url(#paint37_linear_1106_17930)" opacity=".24"/><path d="M657.2 244.4C651.1 242.9 645.5 241.9 639.1 242.9 632.8 243.9 627.5 245.5 620.8 245.4 615.7 245.3 610.7 244.9 605.6 245.1 598.6 245.4 593.3 244.3 586.9 242.8 584.4 242.2 581.9 242.2 579.4 242.4 568.1 243.3 558.2 244.9 546.7 244.4 545.4 244.3 544.9 245.4 546.3 245.6 554.3 246.7 562.4 246.6 570.4 245.4 577.1 244.4 582.4 243.5 589.3 244.8 591.5 245.2 593.5 245.8 595.8 246 600.8 246.4 605.6 245.5 610.6 245.5 615.2 245.5 619.8 246.2 624.4 246 627.2 245.9 629.7 245.5 632.4 244.9 641 243 648.3 243 656.6 244.9 657.1 245 658 244.6 657.2 244.4Z" fill="url(#paint38_linear_1106_17930)" opacity=".24"/><path d="M644.8 231.5C652.5 232.3 660.3 232.7 668.1 233.2 673.8 233.6 680.1 234.4 685.6 232.8 693.7 230.6 696.2 224.6 688 221.2 678.3 217.1 662.1 218 651.6 219.7 646.7 220.5 636.5 222.7 643.8 226.5 648.3 228.9 657.7 229.5 663 229.9 668.6 230.3 676.8 230.9 682.3 229.3 691.2 226.8 686.8 222.1 679.4 221.3 674.7 220.8 655.4 219.6 654.6 225.3 654.6 225.5 654.8 225.7 655 225.8 661.4 228.7 670.6 228.2 677.1 225.9 678.8 225.3 676.9 224.5 675.7 224.7 674.7 224.9 654.5 227.1 661.1 223.6 662.9 222.6 673.4 221.7 675.6 222.7 687.7 228.3 672 228.3 669.3 228.4 664.6 228.5 660 228.1 655.4 227.5 653.8 227.3 652.3 227 650.7 226.7 644.4 223 645 221.1 652.6 221.1 656.8 220.4 661.1 220.1 665.4 220 668.6 219.9 671.9 219.9 675.2 220.1 679.8 220.1 684 221 688.1 222.6 688.4 229.3 685.5 232.4 679.4 232.1 672.1 233 663.4 231.2 655.9 230.6 647.8 229.9 639.9 229.1 631.9 227.7 618.2 225.2 604.9 223.1 590.7 222.9 590.5 222.9 590.4 223 590.6 223.1 609.1 225.2 626.6 229.7 644.8 231.5Z" fill="url(#paint39_linear_1106_17930)" opacity=".24"/><path d="M663.5 215.6C641.7 217.2 621.6 217.6 599.9 215.1 581.3 213 562.4 210.2 543.5 211.2 522 212.3 502.8 218.4 481 215.3 479.6 215.1 477.6 216.2 479.6 216.8 496.1 222.1 514.3 217.6 530.8 214.8 551.7 211.3 571.5 213.2 592.4 215.8 609.7 218 626.9 220 644.5 218.7 666 217.1 686.9 213.8 707.4 220.7V220.6C694.1 214.5 678.5 214.5 663.5 215.6Z" fill="url(#paint40_linear_1106_17930)" opacity=".24"/><path d="M455.1 214.2C468.5 222.4 489.3 224.7 506.2 222.6 517.9 221.2 528.9 218.6 540.8 217.9 554.2 217.1 567.5 218.1 581 218 581.6 218 581.8 217.5 581.2 217.5 561.9 215.7 540.9 215.4 521.7 218.2 510.9 219.8 500.7 221.9 489.6 221.2 477.6 220.5 467.8 217 457.3 213.1 456 212.6 453.7 213.3 455.1 214.2Z" fill="url(#paint41_linear_1106_17930)" opacity=".24"/><path d="M570.8 221.8C550.1 220.3 531.8 221.7 511.6 224.7 501.6 226.2 490.1 226.6 479.9 226.7 466.6 226.7 456.1 222.7 445.2 217.7 443.9 217.1 440.7 217.9 442.6 218.9 450.6 223 459.5 226.7 469.3 228.2 479.2 229.7 489.8 228.5 499.8 228 510.6 227.4 520.3 224.9 530.9 223.4 544.1 221.5 557.5 222.2 570.9 222.2 571.1 222.1 571.1 221.9 570.8 221.8Z" fill="url(#paint42_linear_1106_17930)" opacity=".24"/><path d="M511.3 198.9C502.2 196.8 494.2 197.7 486.9 202.2 481.6 205.4 478.3 210 486.6 212 493.7 213.7 502.4 213.1 510.1 212 516.2 212 522.6 211.3 524.4 209.3 528.9 204.3 515.3 199.8 511.3 198.9ZM511.1 210C508.6 210.1 503.7 210.7 501.6 209.9 500.6 209.2 499.7 208.4 498.7 207.7 502.6 202.9 506 203.1 508.7 208.2 507.1 208.5 508.1 209.4 509.3 209.3 514.1 209.1 522.8 207.2 515.9 203.5 511 200.9 502.8 201.8 498.4 204.6 494.7 206.9 492.8 210.3 498.2 211.3 499.1 211.5 500.6 211.6 502.5 211.8 498.9 211.9 495.5 211.8 492.7 211.2 488.5 211.5 486.3 209.6 486.2 205.5 487.2 204.7 488.3 203.9 489.5 203.2 494 200.4 499.2 199.1 505.3 199.4 509.8 199.6 521.7 201.7 522 206.2 522.4 210.4 514.8 209.8 511.1 210Z" fill="url(#paint43_linear_1106_17930)" opacity=".24"/><path d="M599 211C585.9 208.8 573 208 559.6 207.9 548.4 207.9 540.6 206.2 531.2 201.9 526.7 199.8 522.3 197.7 517.5 196 508.7 192.9 498.7 191.1 489.1 193.3 484.9 194.3 482 196.1 478.6 198 473.4 200.9 469.5 203.1 462.9 203.9 459.5 204.3 456 204.3 452.5 204.5 450.6 204.6 451.5 205.9 452.9 206 462 206.6 471.6 205.9 478.8 201.5 487 196.5 492.7 193.2 504.2 194.4 513.1 195.3 520.2 199 527.5 202.4 536.8 206.8 545.1 209.4 556.3 209.4 570.7 209.4 584.5 209.6 598.7 211.7 599.4 211.8 600 211.1 599 211Z" fill="url(#paint44_linear_1106_17930)" opacity=".24"/><path d="M439.4 200C447.6 199.8 455.6 198.7 463.4 196.9 474.1 194.4 483 189.9 494.7 190 504.6 190.2 515.1 191 524.8 192.8 534.9 194.7 542.4 199.1 551.6 202.2 559.6 204.9 569 204.8 577.7 205.2 588.5 205.7 599.4 206.1 610.2 206.5 629.6 207.3 649.2 208.7 668.6 207.4 668.8 207.4 668.8 207.2 668.5 207.2 647.3 207.8 625.9 205.6 604.8 204.5 594 203.9 583.1 203.4 572.3 202.9 559.7 202.3 550.8 200 539.6 195.8 525.6 190.5 505.8 187.3 490 188.2 482.4 188.6 475.7 191 468.7 193.1 459.1 196 449.3 197.5 439 198.4 437.3 198.7 437.9 200.1 439.4 200Z" fill="url(#paint45_linear_1106_17930)" opacity=".24"/><path d="M584.7 198.6C568.8 196.7 553.7 192 537.9 189.9 536.8 189.8 535.2 190.7 536.8 191.1 550.5 194.4 565.2 197.1 579.3 199.4 592.5 201.5 606.5 201.6 620 202.2 649.5 203.5 678.8 201.9 707.3 207.8V206.9C683.1 201.2 657.9 202.2 632.5 201.3 616.8 200.7 600.3 200.5 584.7 198.6Z" fill="url(#paint46_linear_1106_17930)" opacity=".24"/><path d="M625.6 197.6C624.6 197.5 624.3 198.3 625.3 198.5 638.6 200.6 652 197.6 665.4 197.7 680.1 197.8 693.5 201.8 707.3 204.8V203.8C696.2 200.2 684 197.6 672 196.7 656.6 195.6 641.2 198.4 625.6 197.6Z" fill="url(#paint47_linear_1106_17930)" opacity=".24"/><path d="M527.4 188.6C543.1 189.6 559 189.8 574.4 192 589 194.1 601.8 195.5 616.8 195.2 631.3 194.9 645.1 192.9 659.3 191.4 674.4 189.8 690.1 191.9 705 189.6 705.4 189.5 705.3 189.2 704.9 189.2 690.6 189.3 676.2 188.4 662 189.7 646.2 191.1 631.1 193.4 615 193.6 606.3 193.7 597.5 194 588.9 192.7 582.2 191.7 575.8 190.2 569 189.6 555.3 188.4 541.2 188.4 527.4 187.9 526.4 187.8 526.4 188.5 527.4 188.6Z" fill="url(#paint48_linear_1106_17930)" opacity=".24"/><path d="M490.6 239.2C475.6 240.9 461.2 237.3 446.7 237.4 443.8 237.4 440.8 237.6 437.9 238.1V236.2C440.8 235.8 443.8 235.6 446.7 235.6 461.2 235.5 476 239.3 490.6 239.1 490.7 239.1 490.8 239.2 490.6 239.2Z" fill="url(#paint49_linear_1106_17930)" opacity=".24"/><path d="M469.2 236C461.6 234.5 454.2 234.2 446.7 234 443.8 233.9 440.9 233.9 437.9 233.8V231.9C440.8 231.7 443.7 231.7 446.7 231.8 454.6 232.2 462.5 233.8 469.4 235.7 469.8 235.8 469.5 236 469.2 236Z" fill="url(#paint50_linear_1106_17930)" opacity=".24"/><path d="M480 243.4C471.4 242.8 463 240.8 454.4 240.3 452.2 240.2 443.3 239.7 442.1 242 439.4 247.1 468.2 244.6 470.2 245.1 469.9 245 468.6 245.2 469.2 245.6 469.3 245.6 469.3 245.7 469.4 245.7 469.8 246 470.4 246 470.8 245.7 470.9 245.6 471 245.5 471.1 245.5 471.4 245.3 471.1 245 470.8 244.9 468.1 243.9 464.5 244.7 461.5 244.7 459 244.7 456.1 244.8 453.6 244.5 452.7 244.5 451.9 244.4 451 244.4 446.2 242.5 445.7 241.7 449.5 241.9 454.5 240.7 461.7 242.6 466.8 243.3 471.2 243.9 475.5 244.4 480 244.3 480.9 244.1 481 243.5 480 243.4Z" fill="url(#paint51_linear_1106_17930)" opacity=".24"/></g><g opacity=".24"><path d="M542.8 263.1C539.1 263.2 535.3 263 531.6 263.4 528.8 263.4 526.4 264 524.2 265.1 525.3 265.1 526.4 265.2 527.6 265.2 530.1 265.7 549.2 266.5 543.4 262.5 543.6 262.7 543.5 263 542.8 263.1Z" fill="url(#paint52_linear_1106_17930)" opacity=".24"/><path d="M663 271.3C623 265.3 585.1 275.2 545.3 276.8 527 277.5 510.1 275.3 492.5 271.9 477.3 268.9 462.1 266.1 446.7 266.4 443.8 266.4 440.8 266.6 437.9 266.9V265.8C440.8 265.4 443.8 265.2 446.7 265.1 457.1 264.8 467.7 266 477.9 267.9 499.8 271.8 520.7 276.6 543.6 275.8 583.4 274.5 623.9 262.6 663.5 270.6 664.7 270.7 664 271.4 663 271.3Z" fill="url(#paint53_linear_1106_17930)" opacity=".24"/><path d="M464.7 263.2C490.8 263.2 514.6 274.3 540.5 272.4 555.2 271.3 569.5 268.8 584.2 267.4 599.7 265.9 614.7 266.7 630.2 266.6 631.2 266.6 631.7 265.8 630.5 265.7 601.7 263.3 575.2 267.6 546.9 270.6 538.2 271.5 530.1 272.2 521.5 270.6 515.3 269.4 509.2 267.9 502.9 266.7 490.3 264.2 477.7 262.1 464.6 262.9 464.2 262.9 464.3 263.2 464.7 263.2Z" fill="url(#paint54_linear_1106_17930)" opacity=".24"/><path d="M613.8 262.4C600.3 261.4 586.7 261.8 573.3 263.3 559.5 264.8 545.9 268.8 531.9 269.1 528.7 269.2 513.4 268.9 513.3 264.8 513.2 261.4 520.2 261.8 522.8 261.8 526.4 261.7 539.5 260.4 542.5 262 542.8 262.2 543.1 262.3 543.3 262.5 543.2 262.4 543 262.4 542.8 262.4 534.8 261.9 527.2 262.3 520 265.1 519 265.5 520.2 266 520.8 266.1 522.4 266.2 557.7 267.8 547.8 262.4 542.7 259.6 530.3 261.1 524.5 261 521.4 261 511.7 259.5 509.6 262.1 507.4 264.8 514.6 268.2 517.1 269 523.8 271.2 531.9 270.9 539 270.2 550.8 269 562.2 266.1 573.9 264.6 587.1 262.9 600.3 262.6 613.7 262.7 614.2 262.7 614.2 262.4 613.8 262.4ZM527.6 265.2C526.5 265.2 525.3 265.1 524.2 265.1 526.4 263.9 528.8 263.4 531.6 263.4 535.3 263 539.1 263.2 542.8 263.1 543.5 263.1 543.7 262.8 543.4 262.5 549.1 266.5 530.1 265.7 527.6 265.2Z" fill="url(#paint55_linear_1106_17930)" opacity=".24"/><path d="M480.5 260.2C486.6 261.7 492.2 262.7 498.6 261.7 504.9 260.7 510.2 259.1 516.9 259.2 522 259.3 527 259.7 532.1 259.5 539.1 259.2 544.4 260.3 550.8 261.8 553.3 262.4 555.8 262.4 558.3 262.2 569.6 261.3 579.5 259.7 591 260.2 592.3 260.3 592.8 259.2 591.4 259 583.4 257.9 575.3 258 567.3 259.2 560.6 260.2 555.3 261.1 548.4 259.8 546.2 259.4 544.2 258.8 541.9 258.6 536.9 258.2 532.1 259.1 527.1 259.1 522.5 259.1 517.9 258.4 513.3 258.6 510.5 258.7 508 259.1 505.3 259.7 496.7 261.6 489.4 261.6 481.1 259.7 480.6 259.5 479.6 260 480.5 260.2Z" fill="url(#paint56_linear_1106_17930)" opacity=".24"/><path d="M492.8 273C485.1 272.2 477.3 271.8 469.5 271.3 463.8 270.9 457.5 270.1 452 271.7 443.9 273.9 441.4 279.9 449.6 283.3 459.3 287.4 475.5 286.5 486 284.8 490.9 284 501.1 281.8 493.8 278 489.3 275.6 479.9 275 474.6 274.6 469 274.2 460.8 273.6 455.3 275.2 446.4 277.7 450.8 282.4 458.2 283.2 462.9 283.7 482.2 284.9 483 279.2 483 279 482.8 278.8 482.6 278.7 476.2 275.8 467 276.3 460.5 278.6 458.8 279.2 460.7 280 461.9 279.8 462.9 279.6 483.1 277.4 476.5 280.9 474.7 281.9 464.2 282.8 462 281.8 449.9 276.2 465.6 276.2 468.3 276.1 473 276 477.6 276.4 482.2 277 483.8 277.2 485.3 277.5 486.9 277.8 493.2 281.5 492.6 283.4 485 283.4 480.8 284.1 476.5 284.4 472.2 284.5 469 284.6 465.7 284.6 462.4 284.4 457.8 284.4 453.6 283.5 449.5 281.9 449.2 275.2 452.1 272.1 458.2 272.4 465.5 271.5 474.2 273.3 481.7 273.9 489.8 274.6 497.7 275.4 505.7 276.8 519.4 279.3 532.7 281.4 546.9 281.6 547.1 281.6 547.2 281.5 547 281.4 528.6 279.3 511 274.8 492.8 273Z" fill="url(#paint57_linear_1106_17930)" opacity=".24"/><path d="M656.6 289.4C634.8 286.3 615.6 292.4 594.1 293.5 575.2 294.4 556.3 291.7 537.7 289.6 515.9 287.1 495.9 287.6 474.1 289.1 464.9 289.8 455.6 290 446.7 288.8 443.7 288.4 440.8 287.8 437.9 287V286.2C440.8 286.9 443.8 287.3 446.7 287.6 461.9 289.3 477.4 287.2 493.2 286 510.7 284.7 528 286.7 545.3 288.9 566.1 291.5 586 293.4 606.9 289.9 623.5 287.1 641.6 282.6 658.1 287.9 660 288.5 658.1 289.6 656.6 289.4Z" fill="url(#paint58_linear_1106_17930)" opacity=".24"/><path d="M682.6 290.4C669.2 282.2 648.4 279.9 631.5 282 619.8 283.4 608.8 286 596.9 286.7 583.5 287.5 570.2 286.5 556.7 286.6 556.1 286.6 555.9 287.1 556.5 287.1 575.8 288.9 596.8 289.2 616 286.4 626.8 284.8 637 282.7 648.1 283.4 660.1 284.1 669.9 287.6 680.4 291.5 681.6 292 684 291.2 682.6 290.4Z" fill="url(#paint59_linear_1106_17930)" opacity=".24"/><path d="M566.9 282.7C587.6 284.2 605.9 282.8 626.1 279.8 636.1 278.3 647.6 277.9 657.8 277.8 671.1 277.8 681.6 281.8 692.5 286.8 693.8 287.4 697 286.6 695.1 285.6 687.1 281.5 678.2 277.8 668.4 276.3 658.5 274.8 647.9 276 637.9 276.5 627.1 277.1 617.4 279.6 606.8 281.1 593.6 283 580.2 282.3 566.8 282.3 566.5 282.5 566.5 282.7 566.9 282.7Z" fill="url(#paint60_linear_1106_17930)" opacity=".24"/><path d="M651 292.6C644 290.9 635.2 291.5 627.5 292.6 621.4 292.6 615 293.3 613.2 295.3 608.7 300.2 622.4 304.8 626.3 305.7 635.4 307.7 643.4 306.9 650.7 302.4 656 299.2 659.4 294.6 651 292.6ZM648.2 301.5C643.6 304.3 638.5 305.6 632.3 305.3 627.8 305.1 615.9 303 615.6 298.5 615.2 294.1 622.8 294.7 626.5 294.6 629 294.5 633.9 293.9 636 294.7 637 295.4 637.9 296.2 638.9 296.9 635 301.7 631.6 301.5 628.9 296.4 630.5 296.1 629.5 295.2 628.3 295.3 623.5 295.5 614.8 297.4 621.7 301.1 626.6 303.7 634.8 302.8 639.2 300 642.9 297.7 644.8 294.3 639.4 293.3 638.5 293.1 637 293 635.1 292.8 638.7 292.7 642.1 292.9 644.9 293.4 649.1 293.1 651.3 295 651.4 299.1 650.5 300.1 649.4 300.8 648.2 301.5Z" fill="url(#paint61_linear_1106_17930)" opacity=".24"/><path d="M538.7 293.6C551.8 295.8 564.7 296.6 578.1 296.7 589.3 296.7 597.1 298.4 606.5 302.7 611 304.8 615.4 306.9 620.2 308.6 629 311.7 639 313.5 648.6 311.3 652.8 310.3 655.7 308.5 659.1 306.6 664.3 303.7 668.2 301.5 674.8 300.7 678.2 300.3 681.7 300.3 685.2 300.1 687.1 300 686.2 298.7 684.8 298.6 675.7 298 666.1 298.7 658.9 303.1 650.7 308.1 645 311.4 633.5 310.2 624.6 309.3 617.5 305.6 610.2 302.2 600.9 297.8 592.6 295.2 581.4 295.2 567 295.2 553.2 295 539 292.9 538.3 292.8 537.6 293.4 538.7 293.6Z" fill="url(#paint62_linear_1106_17930)" opacity=".24"/><path d="M698.2 304.5C690 304.7 682 305.8 674.2 307.6 663.5 310.1 654.6 314.6 642.9 314.5 633 314.3 622.5 313.5 612.8 311.7 602.7 309.8 595.2 305.4 586 302.3 578 299.6 568.6 299.7 559.9 299.3 549.1 298.8 538.2 298.4 527.4 298 508 297.2 488.4 295.8 469 297.1 468.8 297.1 468.8 297.3 469.1 297.3 490.3 296.7 511.7 298.9 532.8 300 543.6 300.6 554.5 301.1 565.3 301.6 577.9 302.2 586.8 304.5 598 308.7 612 314 631.8 317.2 647.6 316.3 655.2 315.9 661.9 313.5 668.9 311.4 678.5 308.5 688.3 307 698.6 306.1 700.4 305.9 699.8 304.5 698.2 304.5Z" fill="url(#paint63_linear_1106_17930)" opacity=".24"/><path d="M599.8 314.7C598.1 314.5 596.5 314.2 594.8 313.9 582.6 311.8 570.7 308.6 558.4 306.7 556.6 306.4 554.8 306.2 552.9 305.9 537.3 304 520.8 303.9 505 303.3 493.2 302.9 481.4 302.9 469.7 302.4 466.7 302.3 463.7 302.1 460.7 301.9 456 301.6 451.3 301.2 446.6 300.6 443.7 300.2 440.7 299.8 437.8 299.3V298.2C440.7 298.7 443.7 299.1 446.6 299.4 451.1 299.9 455.5 300.3 460 300.6 463.5 300.8 467 301 470.4 301.2 486 301.8 501.7 301.7 517.4 302.4 530.9 303 544.9 303.1 558.1 305.2 558.8 305.3 559.5 305.4 560.2 305.5 571 307.3 582 309.3 592.7 311.6 595.4 312.2 598 312.8 600.6 313.4 602.4 313.9 600.8 314.8 599.8 314.7Z" fill="url(#paint64_linear_1106_17930)" opacity=".24"/><path d="M512 306.9C496.4 306.1 481 309 465.5 307.8 459.2 307.3 452.9 306.4 446.7 305.1 443.7 304.5 440.8 303.8 437.9 303V301.5C440.8 302.2 443.8 302.9 446.7 303.5 455 305.3 463.3 306.8 472.2 306.8 485.6 306.9 499 303.9 512.3 306 513.4 306.2 513 307 512 306.9Z" fill="url(#paint65_linear_1106_17930)" opacity=".24"/><path d="M610.3 316.8C605.7 316.6 601.1 316.5 596.5 316.4 587.2 316.2 577.9 315.9 568.7 315.1 562.9 314.6 557.4 313.4 551.8 312.4 550.8 312.2 549.8 312.1 548.8 311.9 540.2 310.6 531.4 310.9 522.7 311 506.7 311.2 491.6 313.4 475.7 314.9 466.1 315.8 456.5 315.6 446.8 315.5 443.9 315.5 440.9 315.4 438 315.4V315.3 314.4C440.9 314.1 443.9 314 446.8 313.9 457.3 313.6 468 314.3 478.4 313.2 492.7 311.7 506.5 309.7 520.9 309.4 532.2 309.2 542.3 309.9 552.9 311.2 556.3 311.6 559.8 312.1 563.3 312.6 574 314.1 584.9 314.7 595.8 315.3 600.7 315.5 605.5 315.8 610.4 316.1 611.2 316.1 611.2 316.8 610.3 316.8Z" fill="url(#paint66_linear_1106_17930)" opacity=".24"/><path d="M706.5 266.9C708.6 266.3 706.3 265.1 704.8 265.4 685.5 270.1 666.8 263 647 265.3 646.8 265.3 646.9 265.4 647 265.4 666.9 265.3 687.2 272.5 706.5 266.9Z" fill="url(#paint67_linear_1106_17930)" opacity=".24"/><path d="M704.3 271C692 270.4 680.6 270.9 668.5 268.6 668.2 268.5 667.9 268.8 668.2 268.9 679.3 271.9 693.1 274.2 704.8 272.1 706 271.8 705 271.1 704.3 271Z" fill="url(#paint68_linear_1106_17930)" opacity=".24"/><path d="M657.6 261.2C666.2 261.8 674.6 263.8 683.2 264.3 685.4 264.4 694.3 264.9 695.5 262.6 698.2 257.5 669.4 260 667.4 259.5 667.7 259.6 669 259.4 668.4 259 668.3 259 668.3 258.9 668.2 258.9 667.8 258.6 667.2 258.6 666.8 258.9 666.7 259 666.6 259.1 666.5 259.1 666.2 259.3 666.5 259.6 666.8 259.7 669.5 260.7 673.1 259.9 676.1 259.9 678.6 259.9 681.5 259.8 684 260.1 684.9 260.1 685.7 260.2 686.6 260.2 691.4 262.1 691.9 262.9 688.1 262.7 683.1 263.9 675.9 262 670.8 261.3 666.4 260.7 662.1 260.2 657.6 260.3 656.7 260.5 656.7 261.1 657.6 261.2Z" fill="url(#paint69_linear_1106_17930)" opacity=".24"/></g><g opacity=".24"><path d="M543.6 383.3C539.9 383.2 536.1 383.4 532.4 383 529.6 383 527.2 382.4 525 381.3 526.1 381.3 527.2 381.2 528.4 381.2 530.9 380.7 550 379.9 544.2 383.9 544.4 383.7 544.3 383.3 543.6 383.3Z" fill="url(#paint70_linear_1106_17930)" opacity=".24"/><path d="M664.4 375.9C641.2 380.6 617.6 378.4 594.1 375.6 593.7 375.6 593.3 375.5 592.9 375.5 584.9 374.5 577 373.5 569.1 372.6 568.7 372.6 568.3 372.5 567.9 372.5 565.8 372.3 563.8 372.1 561.7 371.9 561.3 371.9 560.9 371.8 560.5 371.8 558.9 371.7 557.2 371.5 555.6 371.4 555.2 371.4 554.8 371.3 554.4 371.3 551.1 371.1 547.9 370.9 544.6 370.8 521.7 370.1 500.8 374.8 478.9 378.7 478.2 378.8 477.6 378.9 476.9 379.1 469.4 380.4 461.9 381.3 454.3 381.5 448.9 381.7 443.5 381.4 438.1 380.7V379.6C443.5 380.2 448.9 380.3 454.3 380.1 461.9 379.8 469.4 378.9 476.9 377.7 482.5 376.8 488 375.7 493.6 374.6 511.2 371.1 528.1 368.9 546.4 369.7 549.1 369.8 551.8 370 554.5 370.1 554.9 370.1 555.3 370.2 555.7 370.2 557.3 370.3 558.9 370.4 560.5 370.6 560.9 370.6 561.3 370.7 561.7 370.7 563.7 370.9 565.7 371.1 567.7 371.2 568.1 371.2 568.5 371.3 568.9 371.3 577 372.1 585 373 593 373.9 593.4 373.9 593.8 374 594.2 374 617.3 376.6 640.3 378.6 664 375.1 664.8 375 665.5 375.7 664.4 375.9Z" fill="url(#paint71_linear_1106_17930)" opacity=".24"/><path d="M465.5 383.2C491.6 383.2 515.4 372.1 541.3 374 556 375.1 570.3 377.6 585 379 600.5 380.5 615.5 379.7 631 379.8 632 379.8 632.5 380.6 631.3 380.7 602.5 383.1 576 378.8 547.7 375.8 539 374.9 530.9 374.2 522.3 375.8 516.1 377 510 378.5 503.7 379.7 491.1 382.2 478.5 384.3 465.4 383.5 465 383.5 465.1 383.2 465.5 383.2Z" fill="url(#paint72_linear_1106_17930)" opacity=".24"/><path d="M614.6 383.7C607.6 383.8 600.7 383.7 593.9 383.4 593.5 383.4 593.1 383.4 592.7 383.3 589.5 383.1 586.2 382.9 583 382.7 582.6 382.7 582.1 382.6 581.7 382.6 579.4 382.4 577.1 382.1 574.8 381.8 570.6 381.3 566.5 380.6 562.4 379.8 562 379.7 561.6 379.7 561.2 379.6 559.2 379.2 557.2 378.9 555.2 378.5 554.8 378.4 554.4 378.4 554 378.3 549.4 377.5 544.7 376.7 540 376.2 532.9 375.5 524.8 375.2 518.1 377.4 515.6 378.2 508.4 381.6 510.6 384.3 512.7 386.9 522.4 385.5 525.5 385.5 531.3 385.5 543.7 386.9 548.8 384.1 558.7 378.7 523.4 380.3 521.8 380.4 521.2 380.4 520 381 521 381.4 528.1 384.2 535.8 384.6 543.8 384.1 544 384.1 544.2 384 544.3 384 544.1 384.2 543.8 384.3 543.5 384.5 540.6 386.1 527.5 384.7 523.8 384.7 521.1 384.7 514.2 385.1 514.3 381.7 514.4 377.6 529.7 377.4 532.9 377.4 540 377.5 547.1 378.6 554.1 379.9 554.5 380 554.9 380 555.3 380.1 557.4 380.5 559.5 380.9 561.6 381.2 562 381.3 562.4 381.4 562.8 381.4 566.6 382.1 570.5 382.7 574.3 383.1 577.1 383.4 579.8 383.7 582.6 383.9 583 383.9 583.4 384 583.9 384 586.9 384.2 589.8 384.4 592.8 384.5 593.2 384.5 593.6 384.5 594 384.5 601 384.7 607.9 384.6 614.8 384 615 384 615 383.7 614.6 383.7ZM543.6 383.3C539.9 383.2 536.1 383.4 532.4 383.1 529.6 383.1 527.2 382.5 525 381.3 526.1 381.3 527.3 381.2 528.4 381.2 530.9 380.7 550 379.9 544.2 383.9 544.4 383.7 544.3 383.3 543.6 383.3Z" fill="url(#paint73_linear_1106_17930)" opacity=".24"/><path d="M481.3 386.2C487.4 384.7 493 383.7 499.4 384.7 505.7 385.7 511 387.3 517.7 387.2 522.8 387.1 527.8 386.7 532.9 386.9 539.9 387.2 545.2 386.1 551.6 384.6 554.1 384 556.6 384 559.1 384.2 570.4 385.1 580.3 386.7 591.8 386.2 593.1 386.1 593.6 387.2 592.2 387.4 584.2 388.5 576.1 388.4 568.1 387.2 561.4 386.2 556.1 385.3 549.2 386.6 547 387 545 387.6 542.7 387.8 537.7 388.2 532.9 387.3 527.9 387.3 523.3 387.3 518.7 388 514.1 387.8 511.3 387.7 508.8 387.3 506.1 386.7 497.5 384.8 490.2 384.8 481.9 386.7 481.4 386.8 480.5 386.4 481.3 386.2Z" fill="url(#paint74_linear_1106_17930)" opacity=".24"/><path d="M493.6 373.4C485.9 374.2 478.1 374.6 470.3 375.1 464.6 375.5 458.3 376.3 452.8 374.7 444.7 372.5 442.2 366.5 450.4 363.1 460.1 359 476.3 359.9 486.8 361.6 491.7 362.4 501.9 364.6 494.6 368.4 490.1 370.8 480.7 371.4 475.4 371.8 469.8 372.2 461.6 372.8 456.1 371.2 447.2 368.7 451.6 364 459 363.2 463.7 362.7 483 361.5 483.8 367.2 483.8 367.4 483.6 367.6 483.4 367.7 477 370.6 467.8 370.1 461.3 367.8 459.6 367.2 461.5 366.4 462.7 366.6 463.7 366.8 483.9 369 477.3 365.5 475.5 364.5 465 363.6 462.8 364.6 450.7 370.2 466.4 370.2 469.1 370.3 473.8 370.4 478.4 370 483 369.4 484.6 369.2 486.1 368.9 487.7 368.6 494 364.9 493.4 363 485.8 363 481.6 362.3 477.3 362 473 361.9 469.8 361.8 466.5 361.8 463.2 362 458.6 362 454.4 362.9 450.3 364.5 450 371.2 452.9 374.3 459 374 466.3 374.9 475 373.1 482.5 372.5 490.6 371.8 498.5 371 506.5 369.6 520.2 367.1 533.5 365 547.7 364.8 547.9 364.8 548 364.9 547.8 365 529.4 367.1 511.8 371.5 493.6 373.4Z" fill="url(#paint75_linear_1106_17930)" opacity=".24"/><path d="M658.9 358.5C642.4 363.8 624.2 359.3 607.7 356.5 603.7 355.8 599.7 355.4 595.8 355 595.4 355 595 354.9 594.6 354.9 591.4 354.7 588.2 354.5 585.1 354.5 577.6 354.4 570.1 354.8 562.6 355.6 559.9 355.8 557.2 356.1 554.5 356.4 554.1 356.4 553.7 356.5 553.3 356.5 550.9 356.8 548.5 357.1 546.1 357.4 528.8 359.6 511.6 361.6 494 360.3 487.8 359.8 481.7 359.2 475.6 358.8 468.8 358.3 462.1 357.9 455.4 358.2 453.2 358.3 450.9 358.4 448.7 358.6 445.1 359 441.4 359.5 437.8 360.4V359.7C441.1 358.7 444.5 358 447.9 357.6 450.6 357.2 453.4 357 456.2 356.9 462.3 356.6 468.5 356.9 474.7 357.3 474.8 357.3 474.8 357.3 474.9 357.3 496.7 358.9 516.8 359.3 538.5 356.8 543.3 356.3 548 355.7 552.8 355.1 553.2 355 553.6 355 554 355 555.9 354.8 557.8 354.6 559.8 354.4 569.2 353.4 578.7 352.7 588.1 352.7 590.4 352.7 592.6 352.8 594.9 352.9 595 352.9 595 352.9 595.1 352.9 595.5 352.9 595.9 352.9 596.3 353 617.2 354.3 636.1 360.1 657.4 357 658.9 356.8 660.8 357.9 658.9 358.5Z" fill="url(#paint76_linear_1106_17930)" opacity=".24"/><path d="M683.4 356C670 364.2 649.2 366.5 632.3 364.4 620.6 363 609.6 360.4 597.7 359.7 584.3 358.9 571 359.9 557.5 359.8 556.9 359.8 556.7 359.3 557.3 359.3 576.6 357.5 597.6 357.2 616.8 360 627.6 361.6 637.8 363.7 648.9 363 660.9 362.3 670.7 358.8 681.2 354.9 682.4 354.4 684.8 355.1 683.4 356Z" fill="url(#paint77_linear_1106_17930)" opacity=".24"/><path d="M567.7 363.6C588.4 362.1 606.7 363.5 626.9 366.5 636.9 368 648.4 368.4 658.6 368.5 671.9 368.5 682.4 364.5 693.3 359.5 694.6 358.9 697.8 359.7 695.9 360.7 687.9 364.8 679 368.5 669.2 370 659.3 371.5 648.7 370.3 638.7 369.8 627.9 369.2 618.2 366.7 607.6 365.2 594.4 363.3 581 364 567.6 364 567.3 363.9 567.3 363.7 567.7 363.6Z" fill="url(#paint78_linear_1106_17930)" opacity=".24"/><path d="M651.6 344C644.3 339.5 636.2 338.7 627.2 340.7 623.2 341.6 609.6 346.1 614.1 351.1 615.9 353.1 622.3 353.8 628.4 353.8 636.1 355 644.8 355.5 651.9 353.8 660.2 351.8 656.9 347.2 651.6 344ZM645.9 352.9C643.1 353.5 639.6 353.6 636.1 353.5 637.9 353.4 639.5 353.2 640.4 353 645.8 352 643.9 348.5 640.2 346.3 635.7 343.6 627.6 342.6 622.7 345.2 615.7 348.9 624.5 350.8 629.3 351 630.6 351.1 631.5 350.1 629.9 349.9 632.6 344.8 636 344.7 639.9 349.4 638.9 350.1 638 350.9 637 351.6 634.8 352.4 630 351.8 627.5 351.7 623.8 351.6 616.2 352.2 616.6 347.8 617 343.3 628.8 341.3 633.3 341 639.4 340.7 644.6 341.9 649.2 344.8 650.4 345.5 651.5 346.2 652.5 347.1 652.3 351.3 650.1 353.2 645.9 352.9Z" fill="url(#paint79_linear_1106_17930)" opacity=".24"/><path d="M539.5 352.8C552.6 350.6 565.5 349.8 578.9 349.7 590.1 349.7 597.9 348 607.3 343.7 611.8 341.6 616.2 339.5 621 337.8 629.8 334.7 639.8 332.9 649.4 335.1 653.6 336.1 656.5 337.9 659.9 339.8 665.1 342.7 669 344.9 675.6 345.7 679 346.1 682.5 346.1 686 346.3 687.9 346.4 687 347.7 685.6 347.8 676.5 348.4 666.9 347.7 659.7 343.3 651.5 338.3 645.8 335 634.3 336.2 625.4 337.1 618.3 340.8 611 344.2 601.7 348.6 593.4 351.2 582.2 351.2 567.8 351.2 554 351.4 539.8 353.5 539.1 353.6 538.5 352.9 539.5 352.8Z" fill="url(#paint80_linear_1106_17930)" opacity=".24"/><path d="M699 341.8C690.8 341.6 682.8 340.5 675 338.7 664.3 336.2 655.4 331.7 643.7 331.8 633.8 332 623.3 332.8 613.6 334.6 603.5 336.5 596 340.9 586.8 344 578.8 346.7 569.4 346.6 560.7 347 549.9 347.5 539 347.9 528.2 348.3 508.8 349.1 489.2 350.5 469.8 349.2 469.6 349.2 469.6 349 469.9 349 491.1 349.6 512.5 347.4 533.6 346.3 544.4 345.7 555.3 345.2 566.1 344.7 578.7 344.1 587.6 341.8 598.8 337.6 612.8 332.3 632.6 329.1 648.4 330 656 330.4 662.7 332.8 669.7 334.9 679.3 337.8 689.1 339.3 699.4 340.2 701.2 340.5 700.6 341.9 699 341.8Z" fill="url(#paint81_linear_1106_17930)" opacity=".24"/><path d="M601.6 332.9C601 333 600.4 333.2 599.9 333.3 587 336.4 573.3 338.9 560.1 341 559.8 341.1 559.5 341.1 559.1 341.2 557.8 341.4 556.6 341.6 555.3 341.7 552.9 342 550.5 342.3 548.1 342.5 538.2 343.4 528.2 343.5 518.4 344 501.8 344.7 485.2 344.5 468.9 345.3 466.5 345.4 464 345.5 461.6 345.7 456.6 346 451.7 346.5 446.7 347.1 443.8 347.5 440.8 347.9 437.9 348.4V347.3C440.8 346.8 443.8 346.3 446.7 345.9 452.5 345.1 458.3 344.6 464.2 344.3 464.8 344.3 465.4 344.2 466 344.2 479.1 343.5 492.4 343.6 505.8 343.1 519.5 342.6 533.7 342.4 547.4 341.2 549.5 341 551.6 340.8 553.7 340.6 569.4 338.7 584.4 334.1 600 331.9 600.2 331.9 600.3 331.8 600.5 331.8 601.6 331.6 603.2 332.5 601.6 332.9Z" fill="url(#paint82_linear_1106_17930)" opacity=".24"/><path d="M513.1 340.4C499.8 342.4 486.4 339.5 473 339.6 463.9 339.6 455.2 341.2 446.7 343.1 443.8 343.8 440.8 344.5 437.9 345.2V343.7C440.8 342.9 443.7 342.2 446.7 341.5 453.2 340.1 459.8 339.1 466.3 338.6 481.8 337.4 497.2 340.3 512.8 339.5 513.8 339.4 514.2 340.2 513.1 340.4Z" fill="url(#paint83_linear_1106_17930)" opacity=".24"/><path d="M611.1 330.4C607.4 330.6 603.8 330.8 600.1 331 588 331.6 575.9 332.2 564.1 333.8 557.8 334.7 551.8 335.5 545.9 336 538.1 336.8 530.2 337.1 521.7 337 507.2 336.7 493.4 334.7 479.2 333.2 468.5 332.1 457.6 332.8 446.8 332.5 443.8 332.4 440.9 332.3 438 332V331C440.9 331 443.9 330.9 446.8 330.9 456.7 330.7 466.7 330.6 476.5 331.5 492.3 332.9 507.4 335.2 523.4 335.4 530.8 335.5 538.3 335.7 545.6 335 546.9 334.9 548.2 334.7 549.5 334.5 556.2 333.5 562.6 332 569.4 331.4 579.5 330.5 589.8 330.3 600.1 330 603.8 329.9 607.4 329.8 611.1 329.7 612.1 329.6 612 330.3 611.1 330.4Z" fill="url(#paint84_linear_1106_17930)" opacity=".24"/><path d="M707.4 379.5V380.8C706.9 381 706.2 381.1 705.6 381 700.8 379.8 696 379.4 691.2 379.4 683.7 379.3 676.1 380.3 668.6 381 661.8 381.6 654.9 382 647.8 381.2 647.6 381.2 647.7 381.1 647.8 381.1 654.7 381.2 661.6 380.4 668.5 379.5 676.1 378.6 683.7 377.5 691.1 377.5 696.6 377.4 702 377.9 707.4 379.5 707.4 379.5 707.3 379.4 707.4 379.5Z" fill="url(#paint85_linear_1106_17930)" opacity=".24"/><path d="M705.1 375.4C692.8 376 681.4 375.5 669.3 377.8 669 377.9 668.7 377.6 669 377.5 680.1 374.5 693.9 372.2 705.6 374.3 706.8 374.6 705.8 375.3 705.1 375.4Z" fill="url(#paint86_linear_1106_17930)" opacity=".24"/><path d="M658.4 385.2C667 384.6 675.4 382.6 684 382.1 686.2 382 695.1 381.5 696.3 383.8 699 388.9 670.2 386.4 668.2 386.9 668.5 386.8 669.8 387 669.2 387.4 669.1 387.4 669.1 387.5 669 387.5 668.6 387.8 668 387.8 667.6 387.5 667.5 387.4 667.4 387.3 667.3 387.3 667 387.1 667.3 386.8 667.6 386.7 670.3 385.7 673.9 386.5 676.9 386.5 679.4 386.5 682.3 386.6 684.8 386.3 685.7 386.3 686.5 386.2 687.4 386.2 692.2 384.3 692.7 383.5 688.9 383.7 683.9 382.5 676.7 384.4 671.6 385.1 667.2 385.7 662.9 386.2 658.4 386.1 657.5 385.9 657.5 385.3 658.4 385.2Z" fill="url(#paint87_linear_1106_17930)" opacity=".24"/></g><path d="M679.7 230.7C682.848 230.7 685.4 228.148 685.4 225 685.4 221.852 682.848 219.3 679.7 219.3 676.552 219.3 674 221.852 674 225 674 228.148 676.552 230.7 679.7 230.7Z" fill="url(#paint88_linear_1106_17930)"/><path d="M679.7 209.5C682.848 209.5 685.4 206.948 685.4 203.8 685.4 200.652 682.848 198.1 679.7 198.1 676.552 198.1 674 200.652 674 203.8 674 206.948 676.552 209.5 679.7 209.5Z" fill="url(#paint89_linear_1106_17930)"/><path d="M465.5 230.7C468.648 230.7 471.2 228.148 471.2 225 471.2 221.852 468.648 219.3 465.5 219.3 462.352 219.3 459.8 221.852 459.8 225 459.8 228.148 462.352 230.7 465.5 230.7Z" fill="url(#paint90_linear_1106_17930)"/><path d="M465.5 209.5C468.648 209.5 471.2 206.948 471.2 203.8 471.2 200.652 468.648 198.1 465.5 198.1 462.352 198.1 459.8 200.652 459.8 203.8 459.8 206.948 462.352 209.5 465.5 209.5Z" fill="url(#paint91_linear_1106_17930)"/><path d="M600.1 330.1C600.1 337.6 597.1 344.4 592.2 349.4 587.2 354.4 580.3 357.6 572.7 357.6 570.3 357.6 568 357.3 565.9 356.7 562.2 355.7 558.8 354 555.8 351.7 549.4 346.7 545.2 338.9 545.2 330.1 545.2 329.3 545.2 328.5 545.3 327.7 546.5 313.7 558.3 302.6 572.6 302.6 576.3 302.6 579.8 303.3 583.1 304.7 592.4 308.5 599.2 317.4 600 327.9 600.1 328.7 600.1 329.4 600.1 330.1Z" fill="url(#paint92_linear_1106_17930)"/><path d="M600.1 330.1C600.1 337.6 597.1 344.4 592.2 349.4 587.2 354.4 580.3 357.6 572.7 357.6 570.3 357.6 568 357.3 565.9 356.7 563.6 355.7 561.4 354.5 559.5 352.9 553.1 347.9 548.9 340.1 548.9 331.3 548.9 330.5 548.9 329.7 549 328.9 550.2 314.9 562 303.8 576.3 303.8 578.6 303.8 580.9 304.1 583.1 304.7 592.4 308.5 599.2 317.4 600 327.9 600.1 328.7 600.1 329.4 600.1 330.1Z" fill="url(#paint93_linear_1106_17930)"/><path d="M594.7 359.1C593.2 365.9 594.9 376.1 593.5 388.1 592.9 393.8 591.1 395.1 589.5 394.6 587.7 394.1 586 391.4 586 390.1 586 387.7 581.5 378.9 578.6 378.6 575.7 378.3 569 377.7 568.7 370.9 568.5 366.9 566.4 365.5 564.5 365.9 563.1 366.2 561.9 367.5 561.5 369.5 560.7 374.4 565 394.4 565.1 406.4 565.2 413.4 562.7 415.3 560.2 414.9 558.4 414.6 556.6 413.2 555.6 411.7 553.2 408.1 555 380.6 555.4 368.8 555.9 357 552.5 353 552.5 348.5 552.5 345.1 553.6 343.6 554.2 342.4 556.2 341.2 559.5 340.6 564.8 342.1 576.3 345.3 581.8 344.1 588.5 342.4 591.7 341.6 593.7 341.6 595.1 341.9 596.5 342.3 597.1 343.1 597.5 344 597.6 344.1 597.6 344.3 597.7 344.4 598.4 348 595.7 354.3 594.7 359.1Z" fill="#ff7e23"/><path d="M593.5 359.1C592 365.9 593.7 376.1 592.3 388.1 591.8 392.4 590.7 394.2 589.5 394.6 587.3 395.4 584.8 391.7 584.8 390.1 584.8 387.7 580.2 378.9 577.4 378.6 574.5 378.3 567.8 377.7 567.5 370.9 567.4 367.8 566 366.2 564.5 365.9 562.7 365.5 560.7 366.9 560.3 369.5 559.5 374.4 563.8 394.4 563.9 406.4 564 412.3 562.3 414.5 560.2 414.9 558.1 415.3 555.6 413.6 554.3 411.7 551.9 408.1 553.7 380.6 554.1 368.8 554.6 357 551.2 353 551.2 348.5 551.2 346.7 551.5 345.4 551.9 344.5 552.3 343.9 553 343.1 554.1 342.5 556.1 341.3 559.4 340.7 564.7 342.2 576.2 345.4 581.7 344.2 588.4 342.5 591.6 341.7 593.6 341.7 595 342 598.8 344.3 594.8 353 593.5 359.1Z" fill="url(#paint94_linear_1106_17930)"/><path d="M679.7 376.7C682.848 376.7 685.4 374.148 685.4 371 685.4 367.852 682.848 365.3 679.7 365.3 676.552 365.3 674 367.852 674 371 674 374.148 676.552 376.7 679.7 376.7Z" fill="url(#paint95_linear_1106_17930)"/><path d="M679.7 355.5C682.848 355.5 685.4 352.948 685.4 349.8 685.4 346.652 682.848 344.1 679.7 344.1 676.552 344.1 674 346.652 674 349.8 674 352.948 676.552 355.5 679.7 355.5Z" fill="url(#paint96_linear_1106_17930)"/><path d="M679.7 304.5C682.848 304.5 685.4 301.948 685.4 298.8 685.4 295.652 682.848 293.1 679.7 293.1 676.552 293.1 674 295.652 674 298.8 674 301.948 676.552 304.5 679.7 304.5Z" fill="url(#paint97_linear_1106_17930)"/><path d="M679.7 283.2C682.848 283.2 685.4 280.648 685.4 277.5 685.4 274.352 682.848 271.8 679.7 271.8 676.552 271.8 674 274.352 674 277.5 674 280.648 676.552 283.2 679.7 283.2Z" fill="url(#paint98_linear_1106_17930)"/><path d="M465.5 376.7C468.648 376.7 471.2 374.148 471.2 371 471.2 367.852 468.648 365.3 465.5 365.3 462.352 365.3 459.8 367.852 459.8 371 459.8 374.148 462.352 376.7 465.5 376.7Z" fill="url(#paint99_linear_1106_17930)"/><path d="M465.5 355.5C468.648 355.5 471.2 352.948 471.2 349.8 471.2 346.652 468.648 344.1 465.5 344.1 462.352 344.1 459.8 346.652 459.8 349.8 459.8 352.948 462.352 355.5 465.5 355.5Z" fill="url(#paint100_linear_1106_17930)"/><path d="M465.5 304.5C468.648 304.5 471.2 301.948 471.2 298.8 471.2 295.652 468.648 293.1 465.5 293.1 462.352 293.1 459.8 295.652 459.8 298.8 459.8 301.948 462.352 304.5 465.5 304.5Z" fill="url(#paint101_linear_1106_17930)"/><path d="M465.5 283.2C468.648 283.2 471.2 280.648 471.2 277.5 471.2 274.352 468.648 271.8 465.5 271.8 462.352 271.8 459.8 274.352 459.8 277.5 459.8 280.648 462.352 283.2 465.5 283.2Z" fill="url(#paint102_linear_1106_17930)"/><path d="M426.3 129.5C425.5 126.5 428.4 123.1 432.8 121.9 437.2 120.7 441.5 122 442.3 125 443.1 128 440.2 131.4 435.8 132.6 431.4 133.8 427.2 132.4 426.3 129.5Z" fill="url(#paint103_linear_1106_17930)"/><path d="M432.8 127.6C436.2 126.5 438.2 122.9 437.2 119.5 436.2 116 432.7 114 429.2 114.9L432.8 127.6Z" fill="url(#paint104_linear_1106_17930)"/><path d="M436.4 140.4C439.8 139.3 441.8 135.7 440.8 132.3 439.8 128.8 436.3 126.8 432.8 127.7L436.4 140.4Z" fill="url(#paint105_linear_1106_17930)"/><path d="M743.5 39C746.2 40.5 746.5 45 744.3 49 742.1 53 738.1 55 735.4 53.5 732.7 52 732.4 47.5 734.6 43.5 736.8 39.5 740.8 37.5 743.5 39Z" fill="url(#paint106_linear_1106_17930)"/><path d="M740.2 44.8999C738.5 48.0999 739.7 51.9999 742.8 53.7999 745.9 55.5999 749.9 54.4999 751.7 51.3999L740.2 44.8999Z" fill="url(#paint107_linear_1106_17930)"/><path d="M728.6 38.3999C726.9 41.5999 728.1 45.4999 731.2 47.2999 734.3 49.0999 738.3 47.9999 740.1 44.8999L728.6 38.3999Z" fill="url(#paint108_linear_1106_17930)"/><path d="M758.2 226.8C760.9 228.3 761.2 232.8 759 236.8 756.8 240.8 752.8 242.8 750.1 241.3 747.4 239.8 747.1 235.3 749.3 231.3 751.5 227.4 755.5 225.3 758.2 226.8Z" fill="url(#paint109_linear_1106_17930)"/><path d="M754.9 232.7C753.2 235.9 754.4 239.8 757.5 241.6 760.6 243.4 764.6 242.3 766.4 239.2L754.9 232.7Z" fill="url(#paint110_linear_1106_17930)"/><path d="M743.3 226.3C741.6 229.5 742.8 233.4 745.9 235.2 749 237 753 235.9 754.8 232.8L743.3 226.3Z" fill="url(#paint111_linear_1106_17930)"/><path d="M711.5 150.3C710.8 151.9 708.3 152.4 706 151.4 703.6 150.4 702.2 148.3 702.9 146.7 703.6 145.1 706.1 144.6 708.4 145.6 710.7 146.6 712.2 148.7 711.5 150.3Z" fill="url(#paint112_linear_1106_17930)"/><path d="M708 148.8C706.1 148.1 704 149 703.2 150.8 702.4 152.7 703.3 154.8 705.1 155.7L708 148.8Z" fill="url(#paint113_linear_1106_17930)"/><path d="M710.9 141.9C709 141.2 706.9 142.1 706.1 143.9 705.3 145.8 706.2 147.9 708 148.8L710.9 141.9Z" fill="url(#paint114_linear_1106_17930)"/><path d="M153.6 426.9 136.1 425.8 137.1 440.3 152.9 442.3 153.6 426.9Z" fill="url(#paint115_linear_1106_17930)"/><path d="M323.9 479.1C496.544 479.1 636.5 466.654 636.5 451.3 636.5 435.946 496.544 423.5 323.9 423.5 151.256 423.5 11.3 435.946 11.3 451.3 11.3 466.654 151.256 479.1 323.9 479.1Z" fill="url(#paint116_radial_1106_17930)" opacity=".9"/><path d="M232 322.3 223.2 304.1 209.2 313.3 216.2 330.3 232 322.3Z" fill="url(#paint117_linear_1106_17930)"/><path d="M341.3 386.3 150.9 426.3V442.7H363L341.3 386.3Z" fill="url(#paint118_linear_1106_17930)"/><path d="M212.6 327 242.9 434.1C245.4 442.8 253.2 448.9 262.2 449.2L374.4 444.3 355 391.7 270.8 414.8 231.1 320.1 212.6 327Z" fill="url(#paint119_linear_1106_17930)"/><path d="M600.6 331.6C600.6 339.1 597.6 345.9 592.7 350.9L556.3 353.2 462.1 359.3 456.8 329 545.8 329.2 600.5 329.4C600.6 330.1 600.6 330.9 600.6 331.6Z" fill="url(#paint120_linear_1106_17930)"/><path d="M393.8 362.5C403.8 352.1 423.4 314.8 443.2 310.5 458 307.3 457 307.8 457 307.8 457 307.8 471.3 319 476.8 331.6 482.3 344.2 473.6 447.9 369 447.1 369 447.1 347.3 413.8 339.9 383 341.2 380.8 372.3 384.9 393.8 362.5Z" fill="url(#paint121_linear_1106_17930)"/><path d="M460.2 280.1C450 305.6 450.6 330.2 461.3 336.7 461.8 337 462.4 337.3 462.9 337.5 463.9 337.9 464.9 338.2 466 338.3 478.1 339.5 494.6 322.5 504.5 297.9 514.3 273.3 514.1 249.6 504.5 242.1 503.6 241.4 502.7 240.9 501.7 240.5 501.1 240.3 500.6 240.1 500 240 487.8 237.2 470.4 254.5 460.2 280.1Z" fill="url(#paint122_linear_1106_17930)"/><path d="M501.1 264.5C501.1 264.5 491.8 230.7 477 238.9 469.1 243.3 435.9 269.8 453.9 301.3L468.1 306.5 488.5 280.7 501.1 264.5Z" fill="url(#paint123_linear_1106_17930)"/><path d="M475 279.1C474.8 277.6 474 275.8 471.7 275.1 468.7 274.2 465.6 276 464.5 278.9L462.9 283.1C461.7 286.4 463.4 290 466.7 291H466.8C466.8 291 464.6 301.5 450.5 296L445.9 308.2C445.9 308.2 445.1 312.5 450.7 317.5 455.1 321.4 456.1 323.7 462.1 324.9 463.3 325.1 464.1 325.3 464.1 325 466.2 318.5 468.9 309.8 470.2 310.3L477.9 314.4C479.5 315 483.9 317 486.8 315.6 490 314 492.7 309.6 493.9 306.2L505.8 272.9C505.8 272.9 492.5 263 476.4 279.6 476 280.1 475.1 279.8 475 279.1Z" fill="url(#paint124_linear_1106_17930)"/><path d="M451.9 250.6C456.6 243 466 241.1 466 241.1 466 241.1 473.7 233.3 490.4 237.8 507 242.3 508.2 253.9 514.5 258.6 520.8 263.3 523.5 262.9 523.5 262.9 523.5 262.9 521.3 271.4 514.9 274.1 510.8 275.9 498.7 281.6 463 271.5 455.3 269.3 446.1 274.1 446.1 274.1 446.1 274.1 447.3 258.2 451.9 250.6Z" fill="url(#paint125_linear_1106_17930)"/><path d="M506 285 487.1 280.8C487.1 280.8 482.3 294.2 487.3 295.9 492.3 297.7 494.9 289.6 495.7 288.5 496.5 287.4 497.2 287.8 497.1 288.9 497 290 495 296 498.7 297.3 502.4 298.6 503.8 291.7 506 285Z" fill="url(#paint126_linear_1106_17930)"/><path d="M487.7 234.3C488.6 234.5 489.4 234.7 490.3 234.9 489.8 234.5 489.2 234.3 488.7 234.3 488.4 234.2 488.1 234.3 487.7 234.3Z" fill="url(#paint127_linear_1106_17930)"/><path d="M435.1 270C405 301.5 455.2 328 458.8 335.8 459.3 336.9 461 336.6 462.1 337 456.8 332.7 460.4 309.8 470.6 284.3 480.8 258.8 494 239.8 500.8 240.3 499.8 239.8 484.7 236.4 483.6 236.2 458.3 231.6 455 249.1 435.1 270Z" fill="url(#paint128_linear_1106_17930)"/><path d="M425.9 349.9 433.9 430.9C434.8 439.6 443.1 445.9 452.4 444.9L525.4 436.8 524.2 422.2 460.5 418.2 463.1 349.3C463.3 343.5 460.3 338 455.2 334.6L454.7 334.3C448.1 330 439.2 330.2 432.8 334.9 428 338.5 425.4 344.1 425.9 349.9Z" fill="url(#paint129_linear_1106_17930)"/><path d="M146.8 426.5C146.9 426.7 146.9 426.9 146.8 427 146.4 427.5 145.3 428.4 143.5 428.4 141.1 428.5 138.2 428.8 137.3 432.2 136.4 435.6 137.2 435.4 138.2 436.4 139.2 437.4 139.1 438.9 138.3 441.7 138.3 441.7 115.6 447.7 106.9 455.2 106.9 455.2 104 458.8 98.7002 451.8 98.7002 451.8 99.4002 447.3 120.5 424.6 120.5 424.6 132.6 411.5 133.7 411.6 134.7 411.9 141.9 419.8 146.8 426.5Z" fill="url(#paint130_linear_1106_17930)"/><path d="M226.1 309.1C226.2 309.3 226.1 309.5 225.9 309.6 225.3 309.9 224 310.4 222.3 309.8 220 309 217.2 308.4 215.1 311.2 213 314.1 213.9 314.2 214.5 315.5 215.1 316.8 214.5 318.2 212.7 320.4 212.7 320.4 189.4 318 178.6 322.1 178.6 322.1 174.7 324.4 172.1 316 172.1 316 174.3 312 202.1 298.1 202.1 298.1 218 290.1 219 290.6 219.9 291 223.8 301 226.1 309.1Z" fill="url(#paint131_linear_1106_17930)"/><path d="M834.9 121.1C837.6 119.7 841.6 121.9 843.6 126 845.7 130.1 845.1 134.5 842.4 135.9 839.7 137.3 835.7 135.1 833.7 131 831.6 126.9 832.2 122.5 834.9 121.1Z" fill="url(#paint132_linear_1106_17930)"/><path d="M838 127.1C839.7 130.2 843.6 131.5 846.8 129.8 850 128.2 851.3 124.3 849.8 121L838 127.1Z" fill="url(#paint133_linear_1106_17930)"/><path d="M826.2 133.1C827.9 136.2 831.8 137.5 835 135.8 838.2 134.2 839.5 130.3 838 127L826.2 133.1Z" fill="url(#paint134_linear_1106_17930)"/><path d="M288.3 94.6C291 93.2 295 95.4 297 99.5 299 103.6 298.5 108 295.8 109.4 293.1 110.8 289.1 108.6 287.1 104.5 285.1 100.4 285.6 96 288.3 94.6Z" fill="url(#paint135_linear_1106_17930)"/><path d="M291.4 100.6C293.1 103.7 297 105 300.2 103.3 303.4 101.7 304.7 97.8 303.2 94.5L291.4 100.6Z" fill="url(#paint136_linear_1106_17930)"/><path d="M279.6 106.6C281.3 109.7 285.2 111 288.4 109.3 291.6 107.7 292.9 103.8 291.4 100.5L279.6 106.6Z" fill="url(#paint137_linear_1106_17930)"/><path d="M347.5 183.6C345.6 182.7 345.2 179.7 346.6 176.9 348 174.1 350.6 172.6 352.4 173.5 354.2 174.4 354.7 177.4 353.3 180.2 352 183 349.4 184.5 347.5 183.6Z" fill="url(#paint138_linear_1106_17930)"/><path d="M349.5 179.5C350.5 177.3 349.6 174.7 347.4 173.6 345.2 172.5 342.6 173.4 341.5 175.6L349.5 179.5Z" fill="url(#paint139_linear_1106_17930)"/><path d="M357.6 183.4C358.6 181.2 357.7 178.6 355.5 177.5 353.3 176.4 350.7 177.3 349.6 179.5L357.6 183.4Z" fill="url(#paint140_linear_1106_17930)"/></g></svg>